<svg xmlns="http://www.w3.org/2000/svg" width="339" viewBox="0 0 339 90" height="90" version="1.0"><defs><clipPath id="a"><path d="M 4.550781 18 L 45 18 L 45 87.75 L 4.550781 87.75 Z M 4.550781 18"/></clipPath><clipPath id="b"><path d="M 49 18 L 90 18 L 90 87.75 L 49 87.75 Z M 49 18"/></clipPath></defs><path fill="#4F5F8F" d="M 44.792969 37.199219 C 43.082031 14.1875 10.605469 5.867188 10.53125 6.3125 C 10.46875 9.1875 10.410156 12.0625 10.351562 14.941406 C 18.070312 16.503906 37.113281 23.625 44.792969 37.199219 Z M 44.792969 37.199219"/><path fill="#4F5F8F" d="M 44.371094 26.027344 C 42.890625 7.847656 17.84375 -0.273438 17.796875 0.0078125 C 17.78125 1.527344 17.761719 3.046875 17.746094 4.570312 C 25.617188 7.828125 38.4375 15.246094 44.371094 26.027344 Z M 44.371094 26.027344"/><g clip-path="url(#a)"><path fill="#4F5F8F" d="M 31.742188 27.757812 C 20.515625 20.15625 6.371094 18.1875 6.316406 18.507812 C 6.179688 23.875 6.042969 29.242188 5.90625 34.605469 C 22.347656 35.550781 23.332031 45.738281 22.339844 52.253906 L 5.367188 57.679688 L 4.550781 87.734375 L 34.351562 76.230469 C 37.832031 74.8125 41.3125 73.445312 44.792969 72.199219 L 44.792969 51.484375 C 44.792969 42.230469 40.0625 33.394531 31.742188 27.757812 Z M 31.742188 27.757812"/></g><path fill="#4F5F8F" d="M 49.402344 37.199219 C 51.113281 14.1875 83.589844 5.867188 83.664062 6.3125 C 83.726562 9.1875 83.785156 12.0625 83.84375 14.941406 C 76.125 16.503906 57.082031 23.625 49.402344 37.199219 Z M 49.402344 37.199219"/><path fill="#4F5F8F" d="M 49.828125 26.027344 C 51.304688 7.847656 76.351562 -0.273438 76.398438 0.0078125 C 76.414062 1.527344 76.433594 3.046875 76.449219 4.570312 C 68.578125 7.828125 55.757812 15.246094 49.828125 26.027344 Z M 49.828125 26.027344"/><g clip-path="url(#b)"><path fill="#4F5F8F" d="M 62.457031 27.757812 C 73.683594 20.15625 87.824219 18.1875 87.878906 18.507812 C 88.015625 23.875 88.152344 29.242188 88.289062 34.605469 C 71.847656 35.550781 70.863281 45.738281 71.855469 52.253906 L 88.828125 57.679688 L 89.644531 87.734375 L 59.84375 76.230469 C 56.363281 74.8125 52.882812 73.445312 49.402344 72.199219 L 49.402344 51.484375 C 49.402344 42.230469 54.136719 33.394531 62.457031 27.757812 Z M 62.457031 27.757812"/></g><g fill="#4F5F8F"><g><g><path d="M 14.1875 0.625 C 6.78125 0.625 2.382812 -3.203125 1 -10.859375 L 6.796875 -11.828125 C 7.171875 -9.421875 8.007812 -7.546875 9.3125 -6.203125 C 10.613281 -4.859375 12.25 -4.1875 14.21875 -4.1875 C 16.363281 -4.1875 18.054688 -4.925781 19.296875 -6.40625 C 20.535156 -7.882812 21.15625 -10.050781 21.15625 -12.90625 L 21.15625 -38.875 L 12.75 -38.875 L 12.75 -43.71875 L 27.0625 -43.71875 L 27.0625 -13.03125 C 27.0625 -8.789062 25.910156 -5.453125 23.609375 -3.015625 C 21.316406 -0.585938 18.175781 0.625 14.1875 0.625 Z M 14.1875 0.625" transform="translate(117.75 66.75)"/></g></g></g><g fill="#4F5F8F"><g><g><path d="M 12.84375 0.625 C 9.46875 0.625 6.929688 -0.265625 5.234375 -2.046875 C 3.546875 -3.828125 2.703125 -6.269531 2.703125 -9.375 C 2.703125 -12.84375 3.84375 -15.507812 6.125 -17.375 C 8.414062 -19.238281 12.101562 -20.234375 17.1875 -20.359375 L 24.734375 -20.484375 L 24.734375 -22.3125 C 24.734375 -25.039062 24.148438 -26.992188 22.984375 -28.171875 C 21.828125 -29.347656 20.007812 -29.9375 17.53125 -29.9375 C 15.03125 -29.9375 13.207031 -29.507812 12.0625 -28.65625 C 10.925781 -27.8125 10.242188 -26.460938 10.015625 -24.609375 L 4.1875 -25.140625 C 5.132812 -31.171875 9.625 -34.1875 17.65625 -34.1875 C 21.875 -34.1875 25.046875 -33.21875 27.171875 -31.28125 C 29.304688 -29.351562 30.375 -26.5625 30.375 -22.90625 L 30.375 -8.4375 C 30.375 -6.78125 30.59375 -5.53125 31.03125 -4.6875 C 31.46875 -3.851562 32.296875 -3.4375 33.515625 -3.4375 C 34.046875 -3.4375 34.65625 -3.507812 35.34375 -3.65625 L 35.34375 -0.1875 C 33.9375 0.144531 32.5 0.3125 31.03125 0.3125 C 28.957031 0.3125 27.453125 -0.226562 26.515625 -1.3125 C 25.578125 -2.40625 25.046875 -4.109375 24.921875 -6.421875 L 24.734375 -6.421875 C 23.304688 -3.859375 21.644531 -2.039062 19.75 -0.96875 C 17.851562 0.09375 15.550781 0.625 12.84375 0.625 Z M 14.125 -3.5625 C 16.164062 -3.5625 17.984375 -4.023438 19.578125 -4.953125 C 21.171875 -5.890625 22.425781 -7.171875 23.34375 -8.796875 C 24.269531 -10.421875 24.734375 -12.09375 24.734375 -13.8125 L 24.734375 -16.5625 L 18.625 -16.4375 C 15.988281 -16.40625 13.992188 -16.140625 12.640625 -15.640625 C 11.285156 -15.140625 10.242188 -14.375 9.515625 -13.34375 C 8.796875 -12.3125 8.4375 -10.957031 8.4375 -9.28125 C 8.4375 -7.457031 8.925781 -6.046875 9.90625 -5.046875 C 10.894531 -4.054688 12.300781 -3.5625 14.125 -3.5625 Z M 14.125 -3.5625" transform="translate(149.52 66.75)"/></g></g></g><g fill="#4F5F8F"><g><g><path d="M 32.671875 -16.9375 C 32.671875 -5.226562 28.554688 0.625 20.328125 0.625 C 17.773438 0.625 15.65625 0.164062 13.96875 -0.75 C 12.289062 -1.675781 10.921875 -3.164062 9.859375 -5.21875 L 9.8125 -5.21875 C 9.8125 -4.570312 9.769531 -3.59375 9.6875 -2.28125 C 9.601562 -0.96875 9.539062 -0.207031 9.5 0 L 4.09375 0 C 4.21875 -1.113281 4.28125 -3.421875 4.28125 -6.921875 L 4.28125 -46.046875 L 9.859375 -46.046875 L 9.859375 -32.921875 C 9.859375 -31.578125 9.820312 -29.992188 9.75 -28.171875 L 9.859375 -28.171875 C 10.898438 -30.328125 12.269531 -31.867188 13.96875 -32.796875 C 15.675781 -33.722656 17.796875 -34.1875 20.328125 -34.1875 C 24.566406 -34.1875 27.679688 -32.757812 29.671875 -29.90625 C 31.671875 -27.050781 32.671875 -22.726562 32.671875 -16.9375 Z M 26.8125 -16.75 C 26.8125 -21.445312 26.1875 -24.804688 24.9375 -26.828125 C 23.695312 -28.859375 21.679688 -29.875 18.890625 -29.875 C 15.753906 -29.875 13.460938 -28.796875 12.015625 -26.640625 C 10.578125 -24.492188 9.859375 -21.085938 9.859375 -16.421875 C 9.859375 -12.015625 10.5625 -8.757812 11.96875 -6.65625 C 13.382812 -4.550781 15.671875 -3.5 18.828125 -3.5 C 21.640625 -3.5 23.671875 -4.539062 24.921875 -6.625 C 26.179688 -8.707031 26.8125 -12.082031 26.8125 -16.75 Z M 26.8125 -16.75" transform="translate(184.858 66.75)"/></g></g></g><g fill="#4F5F8F"><g><g><path d="M 36.125 0 L 24.765625 -18.15625 L 11.140625 -18.15625 L 11.140625 0 L 5.21875 0 L 5.21875 -43.71875 L 25.78125 -43.71875 C 30.707031 -43.71875 34.507812 -42.613281 37.1875 -40.40625 C 39.863281 -38.207031 41.203125 -35.144531 41.203125 -31.21875 C 41.203125 -27.96875 40.253906 -25.234375 38.359375 -23.015625 C 36.472656 -20.804688 33.863281 -19.410156 30.53125 -18.828125 L 42.9375 0 Z M 35.25 -31.15625 C 35.25 -33.695312 34.382812 -35.632812 32.65625 -36.96875 C 30.925781 -38.300781 28.441406 -38.96875 25.203125 -38.96875 L 11.140625 -38.96875 L 11.140625 -22.84375 L 25.4375 -22.84375 C 28.5625 -22.84375 30.976562 -23.570312 32.6875 -25.03125 C 34.394531 -26.488281 35.25 -28.53125 35.25 -31.15625 Z M 35.25 -31.15625" transform="translate(220.195 66.75)"/></g></g></g><g fill="#4F5F8F"><g><g><path d="M 8.5625 -15.609375 C 8.5625 -11.765625 9.359375 -8.796875 10.953125 -6.703125 C 12.546875 -4.609375 14.875 -3.5625 17.9375 -3.5625 C 20.351562 -3.5625 22.289062 -4.046875 23.75 -5.015625 C 25.207031 -5.992188 26.195312 -7.226562 26.71875 -8.71875 L 31.625 -7.328125 C 29.613281 -2.023438 25.050781 0.625 17.9375 0.625 C 12.96875 0.625 9.1875 -0.851562 6.59375 -3.8125 C 4 -6.769531 2.703125 -11.164062 2.703125 -17 C 2.703125 -22.539062 4 -26.789062 6.59375 -29.75 C 9.1875 -32.707031 12.894531 -34.1875 17.71875 -34.1875 C 27.582031 -34.1875 32.515625 -28.242188 32.515625 -16.359375 L 32.515625 -15.609375 Z M 26.75 -19.890625 C 26.4375 -23.429688 25.535156 -26.007812 24.046875 -27.625 C 22.554688 -29.25 20.414062 -30.0625 17.625 -30.0625 C 14.914062 -30.0625 12.769531 -29.15625 11.1875 -27.34375 C 9.601562 -25.539062 8.75 -23.054688 8.625 -19.890625 Z M 26.75 -19.890625" transform="translate(266.081 66.75)"/></g></g></g><g fill="#4F5F8F"><g><g><path d="M 11.203125 -29.515625 L 11.203125 0 L 5.609375 0 L 5.609375 -29.515625 L 0.90625 -29.515625 L 0.90625 -33.578125 L 5.609375 -33.578125 L 5.609375 -37.359375 C 5.609375 -40.421875 6.28125 -42.625 7.625 -43.96875 C 8.976562 -45.3125 11.039062 -45.984375 13.8125 -45.984375 C 15.363281 -45.984375 16.675781 -45.859375 17.75 -45.609375 L 17.75 -41.359375 C 16.820312 -41.523438 15.992188 -41.609375 15.265625 -41.609375 C 13.835938 -41.609375 12.800781 -41.242188 12.15625 -40.515625 C 11.519531 -39.796875 11.203125 -38.484375 11.203125 -36.578125 L 11.203125 -33.578125 L 17.75 -33.578125 L 17.75 -29.515625 Z M 11.203125 -29.515625" transform="translate(301.418 66.75)"/></g></g></g></svg>