<svg width="1023" height="814" viewBox="0 0 1023 814" fill="none" xmlns="http://www.w3.org/2000/svg">
<g clip-path="url(#clip0_1_2)">
<path opacity="0.1" d="M599.86 137.42C535.14 135.17 473.49 114.28 414.63 91.42C355.77 68.56 297.47 43.23 234.3 31.12C193.67 23.33 147.2 22.23 114.47 44.01C82.96 65.01 72.78 101.16 67.31 134.74C63.19 160 60.77 186.58 72.06 210.23C79.89 226.65 93.8 240.45 103.41 256.23C136.88 310.95 113.23 378.43 76.96 431.86C59.96 456.93 40.21 480.86 27.09 507.52C13.97 534.18 7.88999 564.77 19.37 591.99C30.76 618.99 57.89 639.23 87.27 653.48C146.96 682.43 217.27 690.71 285.88 695.4C437.71 705.79 590.34 701.29 742.57 696.79C798.91 695.12 855.49 693.43 910.91 684.72C941.69 679.88 973.46 672.21 995.81 653.67C1024.17 630.14 1031.2 590.29 1012.2 560.79C980.31 511.3 892.2 499.01 869.88 445.89C857.62 416.66 870.22 384.1 888.04 356.98C926.28 298.82 990.37 247.79 993.75 181.31C996.07 135.64 965.25 89.92 917.61 68.31C867.68 45.58 798.42 48.46 761.6 85.95C723.66 124.58 657 139.4 599.86 137.42Z" fill="url(#paint0_linear_1_2)"/>
<path d="M435.45 690.5L93.17 688.83L59.16 609.06L179.42 600.33L158.46 512.87L396.32 482.04L168.55 402.86L188.67 398.08L554.92 457.83L534.75 594.32L505.92 669.33L435.45 690.5Z" fill="#636096"/>
<path d="M98.42 655.42C98.42 655.42 119.42 652.06 132.02 666.9C132.02 666.9 122.78 674.18 102.9 664.1L98.42 655.42Z" fill="#636096"/>
<path d="M96.22 655.09C96.22 655.09 82.82 671.58 89.42 689.94C89.42 689.94 100.34 685.57 101.53 663.31L96.22 655.09Z" fill="#636096"/>
<path d="M84.18 627.98C84.18 627.98 92.58 612.57 126.18 634.14C126.18 634.14 121.7 644.5 106.86 643.66C92.02 642.82 88.1 636.1 84.18 627.98Z" fill="#636096"/>
<path d="M82.01 626.87C82.01 626.87 64.58 624.87 62.89 664.77C62.89 664.77 73.94 667.06 81.79 654.44C89.64 641.82 86.42 634.74 82.01 626.87Z" fill="#636096"/>
<path d="M71.86 595.04C71.86 595.04 81.66 567.88 117.22 587.2C117.22 587.2 109.1 612.12 75.5 604.28L71.86 595.04Z" fill="#636096"/>
<path d="M60.94 554.44C60.94 554.44 79.42 527 112.18 552.44C112.18 552.44 100.7 578.2 63.74 564.2L60.94 554.44Z" fill="#636096"/>
<path d="M57.02 515.8C57.02 515.8 78.58 490.59 111.02 515.8C111.02 515.8 90.58 537.92 57.02 522.24V515.8Z" fill="#636096"/>
<path d="M53.66 478.27C53.66 478.27 75.5 451.95 106.58 476.87C106.58 476.87 81.94 500.11 53.66 484.43V478.27Z" fill="#636096"/>
<path d="M55.62 444.95C55.62 444.95 78.62 411.07 107.7 434.03C107.7 434.03 83.06 463.15 55.62 451.39V444.95Z" fill="#636096"/>
<path d="M60.94 406.03C60.94 406.03 85.3 372.43 113.58 398.19C113.58 398.19 84.74 427.31 60.94 412.19V406.03Z" fill="#636096"/>
<path d="M69.06 371.24C69.06 371.24 97.9 339.66 123.06 352.24C123.06 352.24 93.01 385.78 67.8 379.62L69.06 371.24Z" fill="#636096"/>
<path d="M79.14 338.26C79.14 338.26 112.42 299.58 131.78 312.5C131.78 312.5 107.26 342.5 76.78 345.5L79.14 338.26Z" fill="#636096"/>
<path d="M93.69 300.01C93.69 300.01 122.82 268.43 144.1 276.27C144.1 276.27 119.18 309.03 89.78 309.87L93.69 300.01Z" fill="#636096"/>
<path d="M106.86 264.23C106.86 264.23 139.06 233.99 153.06 239.31C153.06 239.31 129.82 272.91 105.46 270.95L106.86 264.23Z" fill="#636096"/>
<path d="M119.74 231.19C119.74 231.19 147.46 195.06 162.59 197.86C162.59 197.86 145.78 230.07 119.74 234.86V231.19Z" fill="#636096"/>
<path d="M133.72 186.64C133.72 186.64 158.22 158.95 171.46 159.01C171.46 159.01 152.12 196.01 132.71 195.67L133.72 186.64Z" fill="#636096"/>
<path d="M142 156.98L165.67 99.3C165.67 99.3 166.85 151.44 138.99 167.68L142 156.98Z" fill="#636096"/>
<path d="M151.61 93.37C151.61 93.37 155.53 45.2 153.01 41.28C153.01 41.28 169.93 81.33 151.45 114.65L151.61 93.37Z" fill="#636096"/>
<path d="M70.94 594.4C70.94 594.4 46.4 579.19 30.51 616.4C30.51 616.4 52.35 630.9 73.83 603.89L70.94 594.4Z" fill="#636096"/>
<path d="M60.15 552.89C60.15 552.89 30.05 539.16 15.45 578.01C15.45 578.01 38.7 594.01 62.89 562.71L60.15 552.89Z" fill="#636096"/>
<path d="M55.62 518.11C55.62 518.11 34.06 492.9 1.62 518.11C1.62 518.11 22.06 540.23 55.62 524.55V518.11Z" fill="#636096"/>
<path d="M52.92 478.27C52.92 478.27 31.08 451.95 0 476.87C0 476.87 24.64 500.11 52.92 484.43V478.27Z" fill="#636096"/>
<path d="M55.62 445.91C55.62 445.91 40.3 407.96 7 424.28C7 424.28 25 457.93 54.26 452.21L55.62 445.91Z" fill="#636096"/>
<path d="M62.87 405.84C62.87 405.84 47.64 367.23 13.87 385.13C13.87 385.13 34.55 420.52 61.37 411.8L62.87 405.84Z" fill="#636096"/>
<path d="M72.31 371.43C72.31 371.43 66.31 329.1 38.31 325.31C38.31 325.31 44.25 369.95 68.54 379.06L72.31 371.43Z" fill="#636096"/>
<path d="M79.85 338.34C79.85 338.34 77.51 287.34 54.36 285.56C54.36 285.56 55.14 324.27 77.24 345.56L79.85 338.34Z" fill="#636096"/>
<path d="M96.09 298.58C96.09 298.58 89.19 256.17 67.09 250.99C67.09 250.99 69.83 292.06 93.9 308.99L96.09 298.58Z" fill="#636096"/>
<path d="M109.48 264.58C109.48 264.58 109.25 220.4 95.75 213.91C95.75 213.91 87.38 253.91 105.57 270.22L109.48 264.58Z" fill="#636096"/>
<path d="M120.77 230.69C120.77 230.69 118.88 185.2 104.9 178.79C104.9 178.79 100.12 214.79 118.68 233.67L120.77 230.69Z" fill="#636096"/>
<path d="M135.67 190.27C135.67 190.27 135.59 153.27 125.61 144.59C125.61 144.59 115.69 185.12 130.46 197.71L135.67 190.27Z" fill="#636096"/>
<path d="M140.83 155.16L131.12 93.58C131.12 93.58 117.93 144.04 141.29 166.28L140.83 155.16Z" fill="#636096"/>
<path d="M142.72 93.95C142.72 93.95 117.8 52.55 118.31 47.95C118.31 47.95 120.96 91.34 152.31 112.95L142.72 93.95Z" fill="#636096"/>
<path d="M145.64 81.72C145.64 81.72 122.12 22.92 111.48 18.16C111.48 18.16 145.08 35.24 147.6 80.04L145.64 81.72Z" fill="#636096"/>
<path d="M132.59 196.02L130.98 195.53C150.83 130.8 155.78 89.53 144.93 79.18L146.08 77.96C157.59 88.88 152.92 129.7 132.59 196.02Z" fill="#444053"/>
<path d="M77.93 347.58L75.55 346.73C77.66 340.8 79.93 334.78 82.31 328.85C103.03 277.21 120.67 229.17 131.98 192.29L134.05 191.29C122.72 228.24 105.39 278.12 84.65 329.83C82.28 335.65 80.02 341.64 77.93 347.58Z" fill="#444053"/>
<path d="M128.01 703.86C127.69 703.51 95.52 667.28 73.09 605.43C59.9473 569.219 52.6331 531.153 51.42 492.65C49.88 444.52 59.98 390.78 77.28 341.96L79.16 344.16C40.32 453.73 55.75 547.62 76.22 604.16C98.41 665.45 130.22 701.28 130.53 701.64L128.01 703.86Z" fill="#444053"/>
<path d="M630.73 626.94C630.73 626.94 608.06 654.61 626.06 696.44L445.06 774.94L427.69 778.58L419.69 743.58L425.04 699.41V675.27L630.73 626.94Z" fill="#D5D6DB"/>
<path d="M59.16 609.06L309.68 563.39L641.63 616.27L435.45 690.5L59.16 609.06Z" fill="#636096"/>
<path d="M59.16 609.06L309.68 563.39L641.63 616.27L435.45 690.5L59.16 609.06Z" fill="#636096"/>
<path d="M59.16 609.05C59.16 609.05 35.73 653.44 62.73 694.44L434.23 774.94C434.23 774.94 411.17 739.58 435.42 690.5L59.16 609.05Z" fill="#636096"/>
<path opacity="0.1" d="M59.16 609.05C59.16 609.05 35.73 653.44 62.73 694.44L434.23 774.94C434.23 774.94 411.17 739.58 435.42 690.5L59.16 609.05Z" fill="black"/>
<path opacity="0.1" d="M70.23 624.44C70.23 624.44 56.84 656.92 70.23 677.94V624.44Z" fill="black"/>
<path d="M434.23 774.94L641.63 686.44C641.63 686.44 653.23 688.94 645.73 697.44C638.23 705.94 438.23 783.44 438.23 783.44L62.73 694.44L434.23 774.94Z" fill="#636096"/>
<path opacity="0.1" d="M434.23 774.94L641.63 686.44C641.63 686.44 653.23 688.94 645.73 697.44C638.23 705.94 438.23 783.44 438.23 783.44L62.73 694.44L434.23 774.94Z" fill="black"/>
<path opacity="0.1" d="M417.23 699.44C417.23 699.44 397.23 723.44 417.23 759.44V699.44Z" fill="black"/>
<path opacity="0.1" d="M514.057 699.034L424.348 728.963L424.665 729.912L514.374 699.983L514.057 699.034Z" fill="black"/>
<path opacity="0.1" d="M532.025 696.056L424.32 737.012L424.675 737.947L532.381 696.991L532.025 696.056Z" fill="black"/>
<path opacity="0.1" d="M548.527 695.912L424.921 746.506L425.3 747.432L548.906 696.838L548.527 695.912Z" fill="black"/>
<path opacity="0.1" d="M566.472 691.58L426.364 754.87L426.775 755.782L566.883 692.491L566.472 691.58Z" fill="black"/>
<path opacity="0.1" d="M581.547 691.601L427.473 758.946L427.873 759.862L581.948 692.517L581.547 691.601Z" fill="black"/>
<path opacity="0.1" d="M614.522 686L429.796 765.786L430.193 766.704L614.919 686.918L614.522 686Z" fill="black"/>
<path opacity="0.3" d="M152.23 613.94L328.23 576.94L435.45 597.44L291.23 643.94L152.23 613.94Z" fill="white"/>
<path d="M641.63 616.27C641.63 616.27 650.73 619.94 645.39 625.61C640.05 631.28 435.42 690.5 435.42 690.5L641.63 616.27Z" fill="#636096"/>
<path d="M730.02 530.76C730.02 530.76 707.36 558.42 725.36 600.26L544.36 678.76L526.99 682.42L518.99 647.42L524.42 603.26V579.09L730.02 530.76Z" fill="#D5D6DB"/>
<path d="M158.46 512.87L408.97 467.21L740.93 520.09L534.75 594.32L158.46 512.87Z" fill="#3A3768"/>
<path d="M158.42 512.87C158.42 512.87 134.98 557.26 161.98 598.26L533.48 678.76C533.48 678.76 510.43 643.37 534.71 594.31L158.42 512.87Z" fill="#3A3768"/>
<path opacity="0.1" d="M158.42 512.87C158.42 512.87 134.98 557.26 161.98 598.26L533.48 678.76C533.48 678.76 510.43 643.37 534.71 594.31L417.23 568.88L158.42 512.87Z" fill="black"/>
<path opacity="0.1" d="M169.52 528.26C169.52 528.26 156.14 560.73 169.52 581.76V528.26Z" fill="black"/>
<path d="M533.52 678.76L740.93 590.26C740.93 590.26 752.52 592.76 745.02 601.26C737.52 609.76 537.52 687.26 537.52 687.26L162.02 598.26L533.52 678.76Z" fill="#3A3768"/>
<path opacity="0.1" d="M533.52 678.76L740.93 590.26C740.93 590.26 752.52 592.76 745.02 601.26C737.52 609.76 537.52 687.26 537.52 687.26L162.02 598.26L533.52 678.76Z" fill="black"/>
<path opacity="0.1" d="M516.52 603.26C516.52 603.26 496.52 627.26 516.52 663.26V603.26Z" fill="black"/>
<path opacity="0.1" d="M613.355 602.865L523.646 632.794L523.962 633.743L613.671 603.813L613.355 602.865Z" fill="black"/>
<path opacity="0.1" d="M631.336 599.882L523.63 640.838L523.986 641.773L631.691 600.816L631.336 599.882Z" fill="black"/>
<path opacity="0.1" d="M647.823 599.724L524.216 650.318L524.595 651.244L648.202 600.65L647.823 599.724Z" fill="black"/>
<path opacity="0.1" d="M665.779 595.394L525.671 658.685L526.083 659.596L666.191 596.305L665.779 595.394Z" fill="black"/>
<path opacity="0.1" d="M680.84 595.402L526.766 662.747L527.166 663.664L681.241 596.318L680.84 595.402Z" fill="black"/>
<path opacity="0.1" d="M713.823 589.802L529.097 669.587L529.493 670.505L714.219 590.72L713.823 589.802Z" fill="black"/>
<path opacity="0.45" d="M251.53 517.76L427.53 480.76L534.75 501.26L390.53 547.76L251.53 517.76Z" fill="white"/>
<path d="M740.93 520.09C740.93 520.09 750.02 523.76 744.69 529.42C739.36 535.08 534.75 594.31 534.75 594.31L740.93 520.09Z" fill="#3A3768"/>
<path d="M739.42 420.73C739.42 420.73 716.75 470.4 734.75 512.23L553.75 568.73L536.42 572.4L528.42 537.4L533.77 493.23V469.06L739.42 420.73Z" fill="#D5D6DB"/>
<path d="M167.89 402.85L418.41 357.18L750.37 410.06L544.18 484.29L167.89 402.85Z" fill="#636096"/>
<path d="M167.89 402.84C167.89 402.84 144.42 447.23 171.42 488.23L542.92 568.73C542.92 568.73 519.86 533.34 544.14 484.29L167.89 402.84Z" fill="#636096"/>
<path opacity="0.1" d="M167.89 402.84C167.89 402.84 144.42 447.23 171.42 488.23L542.92 568.73C542.92 568.73 519.86 533.34 544.14 484.29L167.89 402.84Z" fill="black"/>
<path opacity="0.1" d="M178.96 418.23C178.96 418.23 165.57 450.71 178.96 471.73V418.23Z" fill="black"/>
<path d="M542.96 568.73L750.36 502.23C750.36 502.23 761.96 504.73 754.46 513.23C746.96 521.73 546.96 577.23 546.96 577.23L171.46 488.23L542.96 568.73Z" fill="#636096"/>
<path opacity="0.1" d="M542.96 568.73L750.36 502.23C750.36 502.23 761.96 504.73 754.46 513.23C746.96 521.73 546.96 577.23 546.96 577.23L171.46 488.23L542.96 568.73Z" fill="black"/>
<path opacity="0.1" d="M525.96 493.23C525.96 493.23 505.96 517.23 525.96 553.23V493.23Z" fill="black"/>
<path opacity="0.1" d="M622.798 492.833L533.089 522.762L533.405 523.711L623.114 493.781L622.798 492.833Z" fill="black"/>
<path opacity="0.1" d="M640.772 489.855L533.066 530.811L533.421 531.746L641.127 490.79L640.772 489.855Z" fill="black"/>
<path opacity="0.1" d="M657.25 489.702L533.643 540.296L534.022 541.222L657.628 490.628L657.25 489.702Z" fill="black"/>
<path opacity="0.1" d="M675.22 485.363L535.111 548.654L535.523 549.565L675.631 486.274L675.22 485.363Z" fill="black"/>
<path opacity="0.1" d="M690.286 485.381L536.211 552.726L536.612 553.642L690.687 486.297L690.286 485.381Z" fill="black"/>
<path opacity="0.1" d="M723.265 479.787L538.539 559.572L538.936 560.49L723.662 480.705L723.265 479.787Z" fill="black"/>
<path opacity="0.3" d="M260.96 407.73L436.96 370.73L544.18 391.23L399.96 437.73L260.96 407.73Z" fill="white"/>
<path d="M750.36 410.06C750.36 410.06 759.46 413.73 754.12 419.4C748.78 425.07 544.18 484.29 544.18 484.29L750.36 410.06Z" fill="#636096"/>
<path d="M310.42 106.5C310.42 106.5 272.42 104.21 276.86 130.87C276.86 130.87 275.97 135.58 280.24 137.72C280.24 137.72 280.31 135.72 284.14 136.41C285.507 136.645 286.897 136.712 288.28 136.61C290.144 136.482 291.917 135.752 293.33 134.53C293.33 134.53 304.02 130.11 308.18 112.63C308.18 112.63 311.26 108.82 311.18 107.84L304.74 110.58C304.74 110.58 306.93 115.21 305.21 119.06C305.21 119.06 305 110.75 303.76 110.94C303.51 110.94 300.43 112.55 300.43 112.55C300.43 112.55 304.2 120.62 301.35 126.48C301.35 126.48 302.43 116.54 299.25 113.13L294.73 115.77C294.73 115.77 299.14 124.1 296.15 130.9C296.15 130.9 296.92 120.47 293.78 116.41L289.68 119.61C289.68 119.61 293.83 127.82 291.3 133.46C291.3 133.46 290.97 121.32 288.8 120.4C288.8 120.4 285.21 123.56 284.67 124.86C284.67 124.86 287.51 130.86 285.74 133.97C285.74 133.97 284.67 125.88 283.74 125.84C283.74 125.84 280.17 131.2 279.8 134.84C279.973 131.447 281.031 128.157 282.87 125.3C280.812 125.689 278.914 126.673 277.41 128.13C277.41 128.13 277.96 124.34 283.76 124.01C283.76 124.01 286.71 119.94 287.5 119.7C287.5 119.7 281.73 119.21 278.24 120.76C278.24 120.76 281.32 117.19 288.55 118.76L292.55 115.46C292.55 115.46 284.97 114.46 281.75 115.57C281.75 115.57 285.46 112.41 293.64 114.71L298.05 112.08C298.05 112.08 291.58 110.69 287.73 111.19C287.73 111.19 291.79 109 299.34 111.37L302.48 109.96C302.48 109.96 297.75 109.03 296.36 108.88C294.97 108.73 294.9 108.35 294.9 108.35C297.902 107.857 300.982 108.203 303.8 109.35C303.8 109.35 310.55 106.92 310.42 106.5Z" fill="#636096"/>
<path opacity="0.1" d="M845.02 216.08C845.02 216.08 807.02 213.79 811.46 240.45C811.46 240.45 810.57 245.16 814.84 247.3C814.84 247.3 814.91 245.3 818.74 245.99C820.107 246.219 821.497 246.286 822.88 246.19C824.727 246.054 826.481 245.324 827.88 244.11C827.88 244.11 838.58 239.69 842.73 222.21C842.73 222.21 845.81 218.4 845.73 217.42L839.31 220.16C839.31 220.16 841.5 224.79 839.78 228.64C839.78 228.64 839.57 220.33 838.34 220.52C838.09 220.52 835 222.13 835 222.13C835 222.13 838.77 230.2 835.93 236.06C835.93 236.06 837.01 226.12 833.82 222.71L829.3 225.35C829.3 225.35 833.71 233.68 830.72 240.48C830.72 240.48 831.49 230.05 828.35 225.99L824.26 229.19C824.26 229.19 828.4 237.4 825.87 243.04C825.87 243.04 825.54 230.9 823.37 229.98C823.37 229.98 819.79 233.14 819.24 234.44C819.24 234.44 822.08 240.44 820.32 243.55C820.32 243.55 819.24 235.46 818.32 235.42C818.32 235.42 814.75 240.78 814.38 244.42C814.553 241.025 815.615 237.735 817.46 234.88C815.4 235.27 813.499 236.254 811.99 237.71C811.99 237.71 812.55 233.92 818.34 233.59C818.34 233.59 821.29 229.52 822.08 229.27C822.08 229.27 816.32 228.79 812.82 230.34C812.82 230.34 815.9 226.77 823.13 228.34L827.13 225.04C827.13 225.04 819.54 224.04 816.33 225.15C816.33 225.15 820.03 221.99 828.22 224.29L832.62 221.66C832.62 221.66 826.15 220.27 822.3 220.77C822.3 220.77 826.36 218.58 833.91 220.95L837.06 219.54C837.06 219.54 832.32 218.61 830.93 218.46C829.54 218.31 829.47 217.93 829.47 217.93C832.472 217.431 835.554 217.777 838.37 218.93C838.37 218.93 845.14 216.5 845.02 216.08Z" fill="#636096"/>
<path opacity="0.1" d="M374.42 271.2C374.42 271.2 357.86 236.87 336.78 253.79C336.78 253.79 332.23 255.31 332.45 260.08C332.45 260.08 334.2 259.17 335.45 262.85C335.917 264.151 336.534 265.393 337.29 266.55C338.313 268.119 339.819 269.312 341.58 269.95C341.58 269.95 350.65 277.13 367.94 272.23C367.94 272.23 372.77 273.06 373.56 272.48L368.04 268.21C368.04 268.21 365.04 272.38 360.86 272.75C360.86 272.75 368.02 268.52 367.25 267.54C367.09 267.34 364.25 265.41 364.25 265.41C364.25 265.41 359.04 272.64 352.54 273.01C352.54 273.01 361.74 269.11 363.16 264.66L358.66 262C358.66 262 353.53 269.92 346.14 270.62C346.14 270.62 355.62 266.21 357.63 261.49L352.85 259.49C352.85 259.49 347.7 267.11 341.54 267.66C341.54 267.66 351.98 261.45 351.72 259.1C351.72 259.1 347.21 257.52 345.81 257.67C345.81 257.67 341.99 263.06 338.39 263.06C338.39 263.06 344.92 258.17 344.52 257.38C344.52 257.38 338.1 256.88 334.72 258.38C337.766 256.866 341.155 256.177 344.55 256.38C343.203 254.774 341.417 253.596 339.41 252.99C339.41 252.99 342.99 251.63 346.1 256.52C346.1 256.52 351.1 257.11 351.69 257.68C351.69 257.68 349.3 252.42 346.25 250.13C346.25 250.13 350.87 251.06 352.98 258.13L357.83 260.05C357.83 260.05 355.04 252.93 352.47 250.68C352.47 250.68 357.03 252.37 359.02 260.68L363.46 263.24C363.46 263.24 361.53 256.91 359.21 253.8C359.21 253.8 363.1 256.28 364.71 264.02L367.48 266.08C367.48 266.08 365.98 261.49 365.48 260.21C364.98 258.93 365.23 258.67 365.23 258.67C367.132 261.044 368.337 263.901 368.71 266.92C368.71 266.92 374.06 271.5 374.42 271.2Z" fill="#636096"/>
<path opacity="0.1" d="M758.2 167.58C758.2 167.58 741.65 133.25 720.56 150.17C720.56 150.17 716.02 151.69 716.23 156.46C716.23 156.46 717.99 155.56 719.23 159.23C719.696 160.536 720.317 161.782 721.08 162.94C722.099 164.506 723.602 165.696 725.36 166.33C725.36 166.33 734.44 173.51 751.72 168.62C751.72 168.62 756.55 169.44 757.35 168.86L751.86 164.58C751.86 164.58 748.86 168.76 744.69 169.13C744.69 169.13 751.84 164.89 751.07 163.91C750.91 163.71 748.07 161.78 748.07 161.78C748.07 161.78 742.87 169.01 736.36 169.38C736.36 169.38 745.57 165.48 746.99 161.04L742.42 158.4C742.42 158.4 737.3 166.31 729.9 167.02C729.9 167.02 739.38 162.6 741.4 157.88L736.61 155.88C736.61 155.88 731.46 163.51 725.31 164.05C725.31 164.05 735.74 157.84 735.48 155.5C735.48 155.5 730.98 153.91 729.58 154.07C729.58 154.07 725.76 159.45 722.15 159.45C722.15 159.45 728.69 154.56 728.29 153.77C728.29 153.77 721.87 153.27 718.48 154.77C721.526 153.256 724.915 152.566 728.31 152.77C726.968 151.163 725.185 149.984 723.18 149.38C723.18 149.38 726.76 148.02 729.87 152.91C729.87 152.91 734.87 153.51 735.46 154.08C735.46 154.08 733.07 148.81 730.01 146.52C730.01 146.52 734.63 147.46 736.74 154.57L741.6 156.49C741.6 156.49 738.81 149.36 736.24 147.11C736.24 147.11 740.8 148.8 742.78 157.11L747.23 159.67C747.23 159.67 745.29 153.35 742.97 150.23C742.97 150.23 746.87 152.71 748.47 160.45L751.24 162.51C751.24 162.51 749.75 157.92 749.24 156.64C748.73 155.36 748.99 155.11 748.99 155.11C750.887 157.486 752.088 160.342 752.46 163.36C752.46 163.36 757.89 167.9 758.2 167.58Z" fill="#636096"/>
<path opacity="0.1" d="M811.09 337.39C811.09 337.39 794.54 303.05 773.42 319.97C773.42 319.97 768.88 321.49 769.09 326.26C769.09 326.26 770.85 325.36 772.09 329.03C772.553 330.336 773.171 331.581 773.93 332.74C774.949 334.306 776.452 335.496 778.21 336.13C778.21 336.13 787.29 343.32 804.58 338.42C804.58 338.42 809.4 339.25 810.2 338.66L804.68 334.39C804.68 334.39 801.68 338.57 797.5 338.94C797.5 338.94 804.65 334.7 803.88 333.72C803.72 333.52 800.88 331.59 800.88 331.59C800.88 331.59 795.68 338.82 789.17 339.2C789.17 339.2 798.38 335.29 799.8 330.85L795.29 328.19C795.29 328.19 790.17 336.11 782.77 336.81C782.77 336.81 792.25 332.39 794.27 327.67L789.48 325.67C789.48 325.67 784.33 333.29 778.18 333.84C778.18 333.84 788.62 327.63 788.36 325.28C788.36 325.28 783.85 323.69 782.45 323.85C782.45 323.85 778.63 329.23 775.02 329.23C775.02 329.23 781.56 324.34 781.16 323.55C781.16 323.55 774.74 323.05 771.35 324.55C774.399 323.037 777.792 322.347 781.19 322.55C779.846 320.94 778.059 319.761 776.05 319.16C776.05 319.16 779.63 317.79 782.74 322.69C782.74 322.69 787.74 323.28 788.33 323.85C788.33 323.85 785.94 318.59 782.89 316.29C782.89 316.29 787.51 317.23 789.62 324.34L794.47 326.26C794.47 326.26 791.68 319.13 789.11 316.89C789.11 316.89 793.67 318.57 795.65 326.89L800.1 329.44C800.1 329.44 798.16 323.12 795.84 320C795.84 320 799.74 322.48 801.35 330.23L804.12 332.23C804.12 332.23 802.62 327.64 802.12 326.36C801.62 325.08 801.87 324.83 801.87 324.83C803.771 327.204 804.973 330.061 805.34 333.08C805.34 333.08 810.78 337.69 811.09 337.39Z" fill="#636096"/>
<path opacity="0.1" d="M201.95 784.16C214.647 784.16 224.94 783.009 224.94 781.59C224.94 780.171 214.647 779.02 201.95 779.02C189.253 779.02 178.96 780.171 178.96 781.59C178.96 783.009 189.253 784.16 201.95 784.16Z" fill="#636096"/>
<path opacity="0.1" d="M51.24 740.48C63.937 740.48 74.23 739.329 74.23 737.91C74.23 736.491 63.937 735.34 51.24 735.34C38.543 735.34 28.25 736.491 28.25 737.91C28.25 739.329 38.543 740.48 51.24 740.48Z" fill="#636096"/>
<path opacity="0.1" d="M316.83 813.17C329.527 813.17 339.82 812.019 339.82 810.6C339.82 809.181 329.527 808.03 316.83 808.03C304.133 808.03 293.84 809.181 293.84 810.6C293.84 812.019 304.133 813.17 316.83 813.17Z" fill="#636096"/>
<path opacity="0.1" d="M905.53 749.98C918.227 749.98 928.52 748.829 928.52 747.41C928.52 745.991 918.227 744.84 905.53 744.84C892.833 744.84 882.54 745.991 882.54 747.41C882.54 748.829 892.833 749.98 905.53 749.98Z" fill="#636096"/>
<path opacity="0.1" d="M714.22 737.51C726.917 737.51 737.21 736.359 737.21 734.94C737.21 733.521 726.917 732.37 714.22 732.37C701.523 732.37 691.23 733.521 691.23 734.94C691.23 736.359 701.523 737.51 714.22 737.51Z" fill="#636096"/>
<path opacity="0.1" d="M590.46 798.33C605.477 798.33 617.65 796.239 617.65 793.66C617.65 791.081 605.477 788.99 590.46 788.99C575.443 788.99 563.27 791.081 563.27 793.66C563.27 796.239 575.443 798.33 590.46 798.33Z" fill="#636096"/>
<path d="M602.59 746.72C602.59 746.72 564.73 766.28 584.29 789.32C584.29 789.32 586.13 794.32 591.45 793.97C591.45 793.97 590.39 792.03 594.45 790.48C595.895 789.922 597.268 789.193 598.54 788.31C600.259 787.121 601.544 785.405 602.2 783.42C602.2 783.42 609.94 773.06 603.94 753.89C603.94 753.89 604.72 748.47 604.04 747.59L599.44 753.9C599.44 753.9 604.19 757.09 604.74 761.78C604.74 761.78 599.74 753.91 598.74 754.78C598.52 754.96 596.46 758.23 596.46 758.23C596.46 758.23 604.7 763.82 605.31 771.08C605.31 771.08 600.67 760.91 595.66 759.46L592.79 764.58C592.79 764.58 601.79 770.06 602.79 778.3C602.79 778.3 597.56 767.85 592.22 765.74L590.11 771.15C590.11 771.15 598.79 776.67 599.59 783.53C599.59 783.53 592.33 772.06 589.72 772.42C589.72 772.42 588.08 777.5 588.3 779.07C588.3 779.07 594.43 783.17 594.54 787.2C594.54 787.2 588.88 780.05 588.01 780.52C588.01 780.52 587.65 787.71 589.39 791.45C589.39 791.45 586.39 786.11 586.88 780.52C585.126 782.071 583.864 784.101 583.25 786.36C583.25 786.36 581.62 782.41 586.99 778.77C586.99 778.77 587.5 773.18 588.12 772.49C588.12 772.49 582.31 775.33 579.84 778.81C579.84 778.81 580.75 773.62 588.63 771.04L590.63 765.56C590.63 765.56 582.75 768.9 580.32 771.84C580.32 771.84 582.07 766.69 591.25 764.22L593.97 759.22C593.97 759.22 586.97 761.58 583.55 764.22C583.55 764.22 586.2 759.79 594.81 757.75L597.02 754.6C597.02 754.6 591.94 756.41 590.52 757.06C589.1 757.71 588.82 757.39 588.82 757.39C591.416 755.194 594.569 753.761 597.93 753.25C597.93 753.25 602.94 747.06 602.59 746.72Z" fill="#636096"/>
<path d="M714.96 377.29C708.42 359.52 672.42 357.85 656.8 362.38C645.7 365.61 622.3 369.25 609.8 371.08L608.99 370.31C610.61 369.83 610.65 368.65 610.45 366.9C610.334 364.594 610.367 362.282 610.55 359.98C618.21 362.36 625.03 356.73 625.03 356.73C634.03 352.73 631.61 335.61 633.33 330.93C634.62 327.43 636.01 306.81 636.63 296.53H636.76L636.83 293.08C636.92 291.59 636.96 290.72 636.96 290.72C636.96 290.72 637.84 265.58 639.56 260.49C641.16 255.81 642.46 232.23 642.66 228.49C642.66 228.17 642.66 228 642.66 228L642.53 225.82C642.62 224.23 642.66 222.46 642.65 220.6C642.65 212.05 641.76 201.28 641.65 199.54C641.65 199.29 641.65 198.99 641.65 198.63C641.72 194.98 641.26 176.7 625.71 169.79C619.98 167.23 613.09 164.18 606.42 161.21C604.7 146.36 600.77 131.59 601.11 116.63C601.11 114.38 601.31 112.13 601.53 109.89C601.53 110.54 601.46 111.2 601.45 111.89C601.45 113.34 601.45 114.8 601.45 116.25C602.04 97.54 609.11 78.73 608.45 60.42C608.39 62.21 608.26 64.01 608.09 65.81C608.435 59.6168 607.787 53.4083 606.17 47.42C605.57 45.31 604.76 43.13 603.03 41.72C601.395 40.5844 599.519 39.8418 597.55 39.55C592.818 38.3387 588.011 37.4434 583.16 36.87C582.423 34.6137 581.329 32.4901 579.92 30.58C569.78 16.66 554.76 3.57997 537 0.579971C528.09 -0.920029 517.84 0.32997 511.78 6.69997C511.147 7.25956 510.553 7.8609 510 8.49997C506.74 12.39 505.34 17.5 502 21.38C501.78 21.64 501.53 21.88 501.29 22.13C494.75 27.98 484.56 29.2 477.29 34.45C476.009 35.3924 474.808 36.4393 473.7 37.58C470.771 40.4829 468.144 43.676 465.86 47.11C462.59 51.71 459.23 56.5 458.19 61.99C456.1 72.99 463.59 83.42 464.98 94.49C468.08 119.26 440.67 141.24 445.86 165.68C447.245 171.684 450.303 177.173 454.68 181.51C443.99 191.19 434.89 200.58 434.89 200.58V201.14H433.2L433.37 203.14H433.2L434.13 213.99L433.2 229.79C433.2 229.79 433.2 229.96 433.2 230.28V230.36V230.79C433.2 230.79 433.2 230.96 433.2 231.28H433.26C433.57 237.07 434.8 257.89 436.26 262.28C437.98 267.37 438.85 292.51 438.85 292.51C438.85 292.51 440.75 328.04 442.49 332.74C444.23 337.44 441.76 354.51 450.79 358.54C453.432 360.566 456.559 361.863 459.86 362.3C459.4 366.04 459.69 368.75 461.18 369.6C461.818 369.975 462.54 370.181 463.28 370.2C462.667 371.109 462.123 372.061 461.65 373.05C458.066 372.676 454.544 371.846 451.17 370.58C441.47 366.58 409.28 357.58 399.93 363.91C390.58 370.24 368.08 375.98 378.47 401.46C388.86 426.94 393.7 427.58 393.7 427.58C396.898 429.902 399.704 432.721 402.01 435.93C405.13 440.62 434.2 451.35 441.47 451.35C444.56 451.302 447.65 451.456 450.72 451.81C450.72 451.81 442.83 458.73 443.88 462.75C444.93 466.77 441.48 498.95 441.48 498.95C441.48 498.95 449.48 507.01 452.9 496.44L453.02 496.6C453.66 497.47 457.12 501.4 463.63 496.44C466.294 494.419 469.124 492.626 472.09 491.08L503.61 486.62C506.896 486.415 510.191 486.391 513.48 486.55C518.48 486.96 523.39 484 526.48 481.71C533.01 484.19 540.35 486.9 543.84 487.89C550.92 489.89 583.46 498.62 591.07 495.89C592.652 495.261 594.058 494.259 595.17 492.97L602.43 493.2L599.03 493.88C599.03 493.88 605.65 493.99 614.65 494.11L614.27 494.33L625.56 494.23C642.08 494.38 660.64 494.43 663.08 493.88C666.9 493.03 686.75 493.63 692.6 493.88H694.23C694.23 493.88 716.04 489.53 707.04 467.4C700.12 450.4 678.85 445.46 669.41 444.1C672.07 443.57 674.36 443.16 675.88 442.92C682.47 441.92 695.27 435.92 696.31 433.87C697.35 431.82 708.08 425.87 710.85 422.48C713.62 419.09 721.53 395.06 714.96 377.29ZM534.31 427.02L533.24 427.37L532.52 427.61L531.14 428.97C530.04 428.23 528.86 427.45 527.63 426.65C529.8 426.78 532.03 426.91 534.31 427.02Z" fill="url(#paint1_linear_1_2)"/>
<path d="M598.07 321.58C598.07 321.58 613.37 361.58 622.07 357.58C630.77 353.58 628.41 336.58 630.07 331.92C631.73 327.26 633.57 291.92 633.57 291.92C633.57 291.92 634.41 266.92 636.07 261.86C637.61 257.21 638.86 233.76 639.07 230.07C639.07 229.75 639.07 229.58 639.07 229.58L637.42 200.58L628.08 198.25L606.42 206.25L603.42 223.38L602.25 230.07L601.75 232.92L598.07 321.58Z" fill="#BE6F72"/>
<path opacity="0.1" d="M603.11 314.88C603.11 314.88 617.71 326.83 622.11 327.88C626.51 328.93 629.21 338.25 629.21 338.25" fill="black"/>
<path d="M478.42 323.33C478.42 323.33 463.12 363.33 454.42 359.33C445.72 355.33 448.08 338.33 446.42 333.67C444.76 329.01 442.92 293.67 442.92 293.67C442.92 293.67 442.08 268.67 440.42 263.61C438.88 258.96 437.63 235.51 437.42 231.82C437.42 231.5 437.42 231.33 437.42 231.33L439.08 202.33L448.42 200L470.08 208L473.08 225.13L474.25 231.82L474.75 234.67L478.42 323.33Z" fill="#BE6F72"/>
<path d="M578.05 109.27H543.9V162.5H578.05V109.27Z" fill="#3E373A"/>
<path opacity="0.1" d="M578.05 109.27H543.9V162.5H578.05V109.27Z" fill="black"/>
<path d="M472.42 363.17C472.42 363.17 460.75 376 465.08 378.33C469.41 380.66 497.42 424.33 497.42 424.33C497.42 424.33 589.42 435.66 606.77 418.66C624.12 401.66 623.77 371.29 623.77 371.29C623.77 371.29 609.83 374.29 608.31 372.66C606.79 371.03 598.44 363.17 598.44 363.17C598.44 363.17 480.42 356.01 472.42 363.17Z" fill="#4B4B5B"/>
<path opacity="0.02" d="M472.42 363.17C472.42 363.17 460.75 376 465.08 378.33C469.41 380.66 497.42 424.33 497.42 424.33C497.42 424.33 589.42 435.66 606.77 418.66C624.12 401.66 623.77 371.29 623.77 371.29C623.77 371.29 609.83 374.29 608.31 372.66C606.79 371.03 598.44 363.17 598.44 363.17C598.44 363.17 480.42 356.01 472.42 363.17Z" fill="black"/>
<path d="M638.04 201L608.04 225L598.97 225.66L595.64 225.9L539.71 230L481.71 225.76L473.08 225.13L462.08 224.33L439.08 202.33C439.08 202.33 455.36 184.89 469.62 173.12C475.24 168.47 480.55 164.71 484.42 163.23L485.08 163C487.514 162.051 489.687 160.536 491.42 158.58C502.68 146.97 513.09 118.32 513.09 118.32C513.09 118.32 562.76 92.66 556.76 126.32C550.76 159.98 579.09 151.66 579.09 151.66L588.43 155.92L592.12 157.61L601.53 161.92L622.76 171.66C639.42 179.33 638.04 201 638.04 201Z" fill="#BE6F72"/>
<path opacity="0.1" d="M537.38 145.73C562.051 145.73 582.05 125.731 582.05 101.06C582.05 76.3895 562.051 56.39 537.38 56.39C512.709 56.39 492.71 76.3895 492.71 101.06C492.71 125.731 512.709 145.73 537.38 145.73Z" fill="black"/>
<path opacity="0.1" d="M638.11 232.82H437.42C437.42 232.5 437.42 232.33 437.42 232.33L439.08 203.33C439.08 203.33 455.36 185.89 469.62 174.12L595.62 169.12L601.48 162.94L622.71 172.68C639.38 180.34 638.04 202.01 638.04 202.01C638.04 202.01 640.32 227.12 638.11 232.82Z" fill="black"/>
<path d="M638.11 231.82H437.42C437.42 231.5 437.42 231.33 437.42 231.33L439.08 202.33C439.08 202.33 455.36 184.89 469.62 173.12L595.62 168.12L601.48 161.94L622.71 171.68C639.38 179.34 638.04 201.01 638.04 201.01C638.04 201.01 640.32 226.12 638.11 231.82Z" fill="#E7C7CA"/>
<path opacity="0.1" d="M505.21 150.5C505.21 150.5 536.87 190.84 579.04 149.67C621.21 108.5 583.71 241.5 583.71 241.5L492.71 252.3L505.21 150.5Z" fill="black"/>
<path d="M505.21 152.5C505.21 152.5 536.87 192.84 579.04 151.67C621.21 110.5 583.71 243.5 583.71 243.5L492.71 254.3L505.21 152.5Z" fill="#E7C7CA"/>
<path opacity="0.1" d="M592.07 159.58L595.42 210.67L599.01 227.67L601.75 240.67C601.75 240.67 608.75 340.67 606.75 345.67C604.75 350.67 607.75 354.67 608.17 357.33C608.59 359.99 607.75 366.67 608.08 369.67C608.41 372.67 608.08 374 600.42 372.93C592.76 371.86 582.08 370 582.08 370C582.08 370 555.08 372 545.75 368.67C536.42 365.34 518.75 365.33 518.75 365.33C518.75 365.33 492.08 366 483.42 365C474.76 364 470.08 375.67 464.42 372.33C458.76 368.99 471.08 336.67 475.08 327.33C479.08 317.99 469.75 294.33 469.75 294.33L481.75 227.76L484.42 212.67V165.23L485.08 165C487.514 164.051 489.687 162.536 491.42 160.58L494.42 208.32L588.42 211.66V157.93" fill="black"/>
<path d="M592.07 157.58L595.42 208.67L599.01 225.67L601.75 238.67C601.75 238.67 608.75 338.67 606.75 343.67C604.75 348.67 607.75 352.67 608.17 355.33C608.59 357.99 607.75 364.67 608.08 367.67C608.41 370.67 608.08 372 600.42 370.93C592.76 369.86 582.08 368 582.08 368C582.08 368 555.08 370 545.75 366.67C536.42 363.34 518.75 363.33 518.75 363.33C518.75 363.33 492.08 364 483.42 363C474.76 362 470.08 373.67 464.42 370.33C458.76 366.99 471.08 334.67 475.08 325.33C479.08 315.99 469.75 292.33 469.75 292.33L481.75 225.76L484.42 210.67V163.23L485.08 163C487.514 162.051 489.687 160.536 491.42 158.58L494.42 206.32L588.42 209.66V155.93" fill="#E7C7CA"/>
<path opacity="0.1" d="M602.88 50.96C602.31 48.87 601.52 46.7 599.88 45.3C598.314 44.1755 596.505 43.4355 594.6 43.14C590.039 41.9406 585.401 41.0519 580.72 40.48C580.051 38.2595 579.039 36.1574 577.72 34.25C567.92 20.41 553.42 7.35998 536.36 4.40998C527.43 2.85998 517.08 4.24998 511.36 11.29C508.22 15.16 506.87 20.29 503.7 24.09C497.59 31.47 486.56 32.38 478.86 38.09C474.75 41.09 471.77 45.44 468.86 49.66C465.71 54.23 462.47 58.99 461.47 64.45C459.47 75.36 466.68 85.76 468.01 96.77C471.01 121.4 444.61 143.25 449.6 167.55C452.51 181.72 465.6 191.7 479.14 196.76C483.91 198.55 489.36 200.33 491.59 204.91C492.59 206.91 492.76 209.22 493.7 211.24C496.86 217.98 507.25 218.24 512.83 213.33C518.41 208.42 520.17 200.48 520.83 193.07C523.51 160.71 510.55 128.74 512.06 96.3C512.51 86.49 515.27 75.36 524.06 70.92C535.89 64.92 550.12 74.92 563.14 73.01C569.301 88.0014 570.609 104.547 566.88 120.32C564.81 128.95 561.23 137.32 560.97 146.22C560.58 159.77 567.89 172.15 574.21 184.13C575.566 186.37 576.473 188.853 576.88 191.44C576.98 194.065 576.491 196.678 575.45 199.09C571.88 208.7 565.72 217.62 565.02 227.85C564.815 229.044 565.084 230.271 565.77 231.27C566.475 231.937 567.384 232.345 568.35 232.43C579.15 234.28 588.49 224.71 593.76 215.1C599.636 204.486 603.059 192.69 603.78 180.58C604.87 160.22 597.57 140.19 598.02 119.81C598.54 96.64 609.01 73.31 602.88 50.96Z" fill="black"/>
<path d="M603.88 49.96C603.31 47.87 602.52 45.7 600.88 44.3C599.314 43.1755 597.505 42.4355 595.6 42.14C591.039 40.9406 586.401 40.0519 581.72 39.48C581.051 37.2595 580.039 35.1574 578.72 33.25C568.92 19.41 554.42 6.35998 537.36 3.40998C528.43 1.85998 518.08 3.24998 512.36 10.29C509.22 14.16 507.87 19.29 504.7 23.09C498.59 30.47 487.56 31.38 479.86 37.09C475.75 40.09 472.77 44.44 469.86 48.66C466.71 53.23 463.47 57.99 462.47 63.45C460.47 74.36 467.68 84.76 469.01 95.77C472.01 120.4 445.61 142.25 450.6 166.55C453.51 180.72 466.6 190.7 480.14 195.76C484.91 197.55 490.36 199.33 492.59 203.91C493.59 205.91 493.76 208.22 494.7 210.24C497.86 216.98 508.25 217.24 513.83 212.33C519.41 207.42 521.17 199.48 521.83 192.07C524.51 159.71 511.55 127.74 513.06 95.3C513.51 85.49 516.27 74.36 525.06 69.92C536.89 63.92 551.12 73.92 564.14 72.01C570.301 87.0014 571.609 103.547 567.88 119.32C565.81 127.95 562.23 136.32 561.97 145.22C561.58 158.77 568.89 171.15 575.21 183.13C576.566 185.37 577.473 187.853 577.88 190.44C577.98 193.065 577.491 195.678 576.45 198.09C572.88 207.7 566.72 216.62 566.02 226.85C565.815 228.044 566.084 229.271 566.77 230.27C567.475 230.937 568.384 231.345 569.35 231.43C580.15 233.28 589.49 223.71 594.76 214.1C600.636 203.486 604.059 191.69 604.78 179.58C605.87 159.22 598.57 139.19 599.02 118.81C599.54 95.64 610.01 72.31 603.88 49.96Z" fill="#3E373A"/>
<path d="M581.79 492.73L621.46 494L615.77 464.58L585.38 467.47L581.79 492.73Z" fill="#C3C7D9"/>
<path d="M704.71 423C702.04 426.33 691.71 432.33 690.71 434.33C689.71 436.33 677.38 442.33 671.04 443.33C664.7 444.33 644.71 448.67 641.04 451C638.41 452.68 617.3 458 603.43 460.95C599.673 461.839 595.871 462.523 592.04 463C586.04 463.33 520.38 441 520.38 441L533.04 428L533.74 427.76C537.32 426.55 553.86 420.96 563.04 418.3C573.38 415.3 585.38 402.97 585.38 402.97C585.38 402.97 603.04 396.97 605.38 396.3C607.72 395.63 599.38 372.97 599.38 372.97C599.38 372.97 637.71 367.65 652.71 363.14C667.71 358.63 702.38 360.3 708.71 377.97C715.04 395.64 707.42 419.67 704.71 423Z" fill="#4B4B5B"/>
<path d="M530.04 479.33C530.04 479.33 522.38 487.33 514.71 486.67C507.04 486.01 480.22 488.67 480.22 488.67C475.36 490.609 470.808 493.246 466.71 496.5C460.44 501.44 457.11 497.5 456.49 496.66L456.38 496.5C453.04 507.01 445.38 499 445.38 499C445.38 499 448.71 467 447.69 463C446.67 459 454.28 452.13 454.28 452.13L463.28 449.84L486.08 444L518.75 455.33L530.04 479.33Z" fill="#E7C7CA"/>
<path opacity="0.1" d="M463.24 449.84L456.49 496.66L456.38 496.5C453.04 507.01 445.38 499 445.38 499C445.38 499 448.71 467 447.69 463C446.67 459 454.28 452.13 454.28 452.13L463.24 449.84Z" fill="black"/>
<path opacity="0.1" d="M510.42 316.66C510.42 316.66 528.08 322.66 543.42 316.66H510.42Z" fill="black"/>
<path opacity="0.1" d="M570.71 328C570.71 328 578.04 331.66 583.71 328H570.71Z" fill="black"/>
<path opacity="0.1" d="M570.71 336.68C570.71 336.68 583.04 338.33 585.38 335L570.71 336.68Z" fill="black"/>
<path opacity="0.1" d="M566.71 355.33C566.71 355.33 589.87 352.33 595.62 348.33L566.71 355.33Z" fill="black"/>
<path opacity="0.1" d="M496.04 348.33C496.04 348.33 509.04 355.66 518.71 355.33L496.04 348.33Z" fill="black"/>
<path opacity="0.1" d="M603.42 460.95C599.663 461.839 595.861 462.523 592.03 463C586.03 463.33 520.37 441 520.37 441L533.03 428L533.73 427.76C535.73 429.17 537.37 430.38 538.54 431.3C544.05 435.64 549.37 429.97 551.37 429.97C553.37 429.97 570.7 444.3 570.7 444.3C570.7 444.3 586.7 447.97 589.37 451.3C592.04 454.63 601.37 453.97 603.03 456.3C603.53 457.02 603.59 458.79 603.42 460.95Z" fill="black"/>
<path d="M480.22 374.33C480.22 374.33 464.04 375.26 454.71 371.33C445.38 367.4 414.38 358.33 405.38 364.7C396.38 371.07 374.71 376.7 384.71 402.04C394.71 427.38 399.38 428.04 399.38 428.04C402.474 430.36 405.175 433.163 407.38 436.34C410.38 441.01 438.38 451.67 445.38 451.67C452.38 451.67 464.71 451.67 482.04 463.67C499.37 475.67 515.04 477.01 515.04 477.01C515.04 477.01 537.04 486.01 543.89 488.01C550.74 490.01 582.04 498.67 589.38 496.01C596.72 493.35 601.38 476.67 601.38 476.67C601.38 476.67 604.71 461.67 603.04 459.34C601.37 457.01 592.04 457.67 589.38 454.34C586.72 451.01 570.71 447.34 570.71 447.34C570.71 447.34 553.42 433 551.42 433C549.42 433 544.1 438.66 538.59 434.33C527.614 426.2 516.083 418.849 504.08 412.33C491.42 405.66 480.22 374.33 480.22 374.33Z" fill="#4B4B5B"/>
<path opacity="0.1" d="M447.69 384C450.571 383.411 453.549 383.496 456.392 384.247C459.235 384.998 461.866 386.395 464.08 388.33C472.08 395 499 408.39 499 408.39" fill="black"/>
<path opacity="0.1" d="M647.71 383.58C647.71 383.58 612.04 388.98 605.38 396.31L647.71 383.58Z" fill="black"/>
<path d="M688.71 494H687.14C681.5 493.8 662.39 493.2 658.71 494C654.38 495 597.04 494 597.04 494L608.25 491.67C608.25 491.67 604.09 477.09 606.73 475.88C606.73 475.88 591.73 466 603.04 459.33C614.35 452.66 626.54 455.47 626.54 455.47L654.93 445.85L660.38 444C660.38 444 692.38 445.67 701.04 467.67C709.7 489.67 688.71 494 688.71 494Z" fill="#E7C7CA"/>
<path opacity="0.1" d="M688.71 494H687.14C696.45 486.32 717.51 462.94 654.93 445.9L660.38 444.05C660.38 444.05 692.38 445.72 701.04 467.72C709.7 489.72 688.71 494 688.71 494Z" fill="black"/>
<path d="M629.88 468.08C630.847 468.08 631.63 467.296 631.63 466.33C631.63 465.363 630.847 464.58 629.88 464.58C628.914 464.58 628.13 465.363 628.13 466.33C628.13 467.296 628.914 468.08 629.88 468.08Z" fill="#4B4B5B"/>
<path d="M619.71 470.97C620.677 470.97 621.46 470.186 621.46 469.22C621.46 468.254 620.677 467.47 619.71 467.47C618.744 467.47 617.96 468.254 617.96 469.22C617.96 470.186 618.744 470.97 619.71 470.97Z" fill="#4B4B5B"/>
<g opacity="0.1">
<path opacity="0.1" d="M570.16 99.41C570.548 88.4108 568.591 77.455 564.42 67.27C551.42 69.21 537.18 59.18 525.34 65.18C516.58 69.62 513.83 80.75 513.34 90.56C513.22 93.15 513.2 95.74 513.25 98.33C513.25 97.41 513.25 96.48 513.34 95.56C513.8 85.75 516.55 74.62 525.34 70.18C537.18 64.18 551.4 74.18 564.42 72.27C567.953 80.8971 569.897 90.0915 570.16 99.41Z" fill="black"/>
<path opacity="0.1" d="M469.42 97.58C469.591 95.401 469.548 93.2105 469.29 91.04C468.23 82.24 463.42 73.83 462.55 65.25C461.43 75.6 468.02 85.54 469.29 96.04C469.42 96.58 469.42 97.06 469.42 97.58Z" fill="black"/>
<path opacity="0.1" d="M522.11 187.32C521.49 194.74 519.74 202.67 514.11 207.59C508.48 212.51 498.11 212.24 494.98 205.5C493.98 203.5 493.83 201.17 492.86 199.17C490.64 194.59 485.18 192.81 480.41 191.02C466.86 185.95 453.79 176.02 450.88 161.81C450.62 160.523 450.443 159.22 450.35 157.91C450.104 160.887 450.283 163.883 450.88 166.81C453.79 180.98 466.88 190.95 480.41 196.02C485.18 197.81 490.64 199.59 492.86 204.17C493.86 206.17 494.03 208.48 494.98 210.5C498.13 217.24 508.52 217.5 514.11 212.59C519.7 207.68 521.44 199.74 522.11 192.32C522.414 188.415 522.518 184.496 522.42 180.58C522.42 182.85 522.29 185.09 522.11 187.32Z" fill="black"/>
<path opacity="0.1" d="M599.35 114.07C599.35 115.52 599.35 116.96 599.35 118.4C599.91 99.8 606.73 81.1 606.06 62.89C605.54 79.73 599.73 96.95 599.35 114.07Z" fill="black"/>
<path opacity="0.1" d="M577.89 189.31C578.136 188.123 578.213 186.908 578.12 185.7C577.717 183.112 576.81 180.628 575.45 178.39C569.67 167.39 563.08 156.13 562.3 143.92C562.3 144.44 562.23 144.92 562.22 145.48C561.82 159.02 569.13 171.41 575.45 183.39C576.524 185.246 577.345 187.237 577.89 189.31Z" fill="black"/>
<path opacity="0.1" d="M605.1 174.84C604.353 186.955 600.906 198.75 595.01 209.36C589.73 218.97 580.4 228.54 569.59 226.69C568.621 226.607 567.711 226.194 567.01 225.52C566.807 225.291 566.648 225.027 566.54 224.74C566.42 225.52 566.32 226.31 566.26 227.11C566.053 228.301 566.323 229.526 567.01 230.52C567.711 231.194 568.621 231.607 569.59 231.69C580.4 233.54 589.73 223.97 595.01 214.36C600.906 203.75 604.353 191.955 605.1 179.84C605.22 177.5 605.23 175.17 605.16 172.84C605.14 173.51 605.14 174.17 605.1 174.84Z" fill="black"/>
</g>
<path opacity="0.1" d="M606.73 475.88C606.73 475.88 632.04 486.5 648.73 463" stroke="black" stroke-miterlimit="10"/>
<path opacity="0.1" d="M611.71 494.44C611.71 494.44 632.38 481 658.71 494" stroke="black" stroke-miterlimit="10"/>
<path opacity="0.1" d="M473.35 491.39C473.35 491.39 482.03 471.81 505.21 486.74" stroke="black" stroke-miterlimit="10"/>
<path opacity="0.1" d="M445.21 201.83L462.91 185.83C462.91 185.83 531.54 181.33 534.38 204.66C534.38 204.66 558.71 177 609.88 183.16L631.53 200.4L571.69 226.66L513.54 246.83L470.71 227.66L445.21 201.83Z" fill="black"/>
<path d="M445.21 202.83L462.91 186.83C462.91 186.83 531.54 182.33 534.38 205.66C534.38 205.66 558.71 178 609.88 184.16L631.53 201.4L571.69 227.66L513.54 247.83L470.71 228.66L445.21 202.83Z" fill="#D5D6DB"/>
<path opacity="0.1" d="M437.38 204.83L445.21 298.5L528.21 302.67L524.61 209.4L524.54 207.83L437.38 204.83Z" fill="black"/>
<path d="M437.38 202.83L445.21 296.5L528.21 300.67L524.61 207.4L524.54 205.83L437.38 202.83Z" fill="#636096"/>
<path opacity="0.1" d="M635.33 202.83L549.71 215.67V309.76L633.38 297.67L635.33 202.83Z" fill="black"/>
<path d="M635.33 200.83L549.71 213.67V307.76L633.38 295.67L635.33 200.83Z" fill="#636096"/>
<path opacity="0.3" d="M615.14 223.79L568.89 228.93L569.9 244.69L615.11 239.75L615.14 223.79Z" fill="white"/>
<path d="M449.71 346.66L454.42 359.33C454.42 359.33 461.42 365.33 469.08 362.33C476.74 359.33 483.42 357.84 486.75 354.92C490.08 352 494.75 337.33 494.75 337.33C494.75 337.33 499.42 321.33 504.08 317.33C508.74 313.33 521.08 258.22 504.08 263.61C487.08 269 474.08 319 474.08 319C474.08 319 471.08 322.66 466.75 323C462.42 323.34 453.75 322.33 452.08 326C450.41 329.67 444.71 339.33 449.71 346.66Z" fill="#BE6F72"/>
<path opacity="0.1" d="M549.71 215.66C545.326 216.648 540.772 216.596 536.412 215.509C532.052 214.422 528.007 212.33 524.6 209.4L528.21 302.66C528.21 302.66 536.71 311.86 549.71 309.76V215.66Z" fill="black"/>
<path d="M549.71 213.66C545.326 214.648 540.772 214.596 536.412 213.509C532.052 212.422 528.007 210.33 524.6 207.4L528.21 300.66C528.21 300.66 536.71 309.86 549.71 307.76V213.66Z" fill="#636096"/>
<path opacity="0.1" d="M549.71 213.66C545.326 214.648 540.772 214.596 536.412 213.509C532.052 212.422 528.007 210.33 524.6 207.4L528.21 300.66C528.21 300.66 536.71 309.86 549.71 307.76V213.66Z" fill="black"/>
<path opacity="0.1" d="M551.71 203.15C551.71 203.15 586.54 192.5 595.62 194L551.71 203.15Z" fill="black"/>
<path opacity="0.1" d="M512.75 198.5C512.75 198.5 478.99 190.5 473.35 192.77L512.75 198.5Z" fill="black"/>
<path opacity="0.1" d="M573.67 204.48C573.67 204.48 596.96 195.94 605.38 200L573.67 204.48Z" fill="black"/>
<path opacity="0.1" d="M561.94 418.71C565.549 416 569.391 413.614 573.42 411.58C579.42 408.69 590.42 401.19 590.42 401.19" fill="black"/>
<path opacity="0.1" d="M473.35 316.66C473.35 316.66 458.74 328.61 454.35 329.66C449.96 330.71 447.25 340.03 447.25 340.03" fill="black"/>
<path d="M626.74 344.88L622.08 357.58C622.08 357.58 615.08 363.58 607.41 360.58C599.74 357.58 593.08 356.09 589.74 353.17C586.4 350.25 581.74 335.58 581.74 335.58C581.74 335.58 577.08 319.58 572.41 315.58C567.74 311.58 555.41 256.47 572.41 261.86C589.41 267.25 602.41 317.25 602.41 317.25C602.41 317.25 605.41 320.91 609.74 321.25C614.07 321.59 622.74 320.58 624.41 324.25C626.08 327.92 631.74 337.58 626.74 344.88Z" fill="#BE6F72"/>
<path opacity="0.1" d="M618.57 321.52C618.57 321.52 628.12 327.66 628.08 335L618.57 321.52Z" fill="black"/>
<path d="M537.54 143.54C562.211 143.54 582.21 123.541 582.21 98.87C582.21 74.1995 562.211 54.2 537.54 54.2C512.869 54.2 492.87 74.1995 492.87 98.87C492.87 123.541 512.869 143.54 537.54 143.54Z" fill="#BE6F72"/>
<path d="M509.49 86.88C514.91 86.03 519.66 82.88 524.84 81.07C536.43 77 549.25 79.79 560.98 83.46C565.48 84.87 570.05 86.46 574.77 86.46C579.49 86.46 584.5 84.53 586.91 80.46C589.13 76.72 588.7 71.86 586.83 67.93C584.96 64 581.83 60.84 578.67 57.86C568.27 48.04 555.37 38.86 541.1 39.86C535.36 40.27 529.87 42.32 524.59 44.59C517.942 47.455 511.47 50.7141 505.21 54.35C500.4 57.14 491.49 60.87 488.72 65.97C482.42 77.46 499.69 88.42 509.49 86.88Z" fill="#3E373A"/>
<path opacity="0.1" d="M586.91 76.26C584.5 80.33 579.49 82.26 574.77 82.26C570.05 82.26 565.48 80.73 560.97 79.32C549.24 75.65 536.43 72.85 524.83 76.93C519.66 78.74 514.9 81.93 509.48 82.73C501.58 83.97 488.86 77.09 487.48 68.34C485.93 78.45 500.68 87.11 509.48 85.73C514.9 84.88 519.66 81.73 524.83 79.93C536.43 75.85 549.24 78.65 560.97 82.32C565.48 83.73 570.04 85.32 574.77 85.26C579.5 85.2 584.5 83.34 586.91 79.26C588.159 77.0404 588.651 74.4741 588.31 71.95C588.154 73.4696 587.677 74.9388 586.91 76.26Z" fill="black"/>
<path d="M949.42 618.21C949.42 618.21 955.35 625.96 946.68 637.67C938.01 649.38 930.87 659.26 933.75 666.56C933.75 666.56 946.83 644.82 957.47 644.51C968.11 644.2 961.11 631.28 949.42 618.21Z" fill="#636096"/>
<path opacity="0.1" d="M949.42 618.21C949.936 618.959 950.344 619.777 950.63 620.64C961.01 632.84 966.55 644.23 956.56 644.51C947.26 644.78 936.11 661.41 933.44 665.6C933.525 665.939 933.629 666.272 933.75 666.6C933.75 666.6 946.83 644.86 957.47 644.55C968.11 644.24 961.11 631.28 949.42 618.21Z" fill="black"/>
<path d="M960.42 628.09C960.42 630.82 960.11 633.03 959.74 633.03C959.37 633.03 959.05 630.82 959.05 628.09C959.05 625.36 959.43 626.65 959.81 626.65C960.19 626.65 960.42 625.36 960.42 628.09Z" fill="#FFD037"/>
<path d="M964.21 631.35C961.82 632.65 959.73 633.44 959.55 633.11C959.37 632.78 961.16 631.45 963.55 630.11C965.94 628.77 965 629.75 965.18 630.11C965.36 630.47 966.61 630.04 964.21 631.35Z" fill="#FFD037"/>
<path d="M918.08 618.21C918.08 618.21 912.15 625.96 920.82 637.67C929.49 649.38 936.63 659.26 933.74 666.56C933.74 666.56 920.67 644.82 910.02 644.51C899.37 644.2 906.42 631.28 918.08 618.21Z" fill="#636096"/>
<path opacity="0.1" d="M918.08 618.21C917.564 618.959 917.156 619.777 916.87 620.64C906.49 632.84 900.95 644.23 910.94 644.51C920.23 644.78 931.39 661.41 934.06 665.6C933.976 665.94 933.869 666.274 933.74 666.6C933.74 666.6 920.67 644.86 910.02 644.55C899.37 644.24 906.42 631.28 918.08 618.21Z" fill="black"/>
<path d="M907.06 628.09C907.06 630.82 907.36 633.03 907.74 633.03C908.12 633.03 908.43 630.82 908.43 628.09C908.43 625.36 908.04 626.65 907.67 626.65C907.3 626.65 907.06 625.36 907.06 628.09Z" fill="#FFD037"/>
<path d="M903.28 631.35C905.67 632.65 907.76 633.44 907.94 633.11C908.12 632.78 906.33 631.45 903.94 630.11C901.55 628.77 902.49 629.75 902.31 630.11C902.13 630.47 900.88 630.04 903.28 631.35Z" fill="#FFD037"/>
<path opacity="0.1" d="M933.75 725.88C967.992 725.88 995.75 721.622 995.75 716.37C995.75 711.118 967.992 706.86 933.75 706.86C899.508 706.86 871.75 711.118 871.75 716.37C871.75 721.622 899.508 725.88 933.75 725.88Z" fill="#636096"/>
<path d="M965.66 656.11L965.36 658.53L964.94 661.95L964.77 663.38L964.35 666.8L964.17 668.23L963.76 671.64L959.01 710.54C958.59 714.01 952.92 716.72 946.07 716.72H921.42C914.57 716.72 908.91 714.01 908.48 710.54L903.73 671.64L903.31 668.23L903.14 666.8L902.72 663.38L902.54 661.95L902.13 658.53L901.83 656.11C901.6 654.11 904.66 652.49 908.54 652.49H958.96C962.83 652.49 965.9 654.14 965.66 656.11Z" fill="#65617D"/>
<path d="M965.36 658.53L964.95 661.95H902.55L902.13 658.53H965.36Z" fill="#9D9CB5"/>
<path d="M964.77 663.38L964.36 666.8H903.14L902.72 663.38H964.77Z" fill="#9D9CB5"/>
<path d="M964.18 668.23L963.76 671.65H903.73L903.32 668.23H964.18Z" fill="#9D9CB5"/>
</g>
<defs>
<linearGradient id="paint0_linear_1_2" x1="518.074" y1="26.018" x2="518.074" y2="701.738" gradientUnits="userSpaceOnUse">
<stop offset="0.374957" stop-color="#5D56C6"/>
<stop offset="0.895833" stop-color="#32313A" stop-opacity="0"/>
</linearGradient>
<linearGradient id="paint1_linear_1_2" x1="546.64" y1="501.92" x2="546.64" y2="-3.17001e-05" gradientUnits="userSpaceOnUse">
<stop stop-color="#808080" stop-opacity="0.25"/>
<stop offset="0.54" stop-color="#808080" stop-opacity="0.12"/>
<stop offset="1" stop-color="#808080" stop-opacity="0.1"/>
</linearGradient>
<clipPath id="clip0_1_2">
<rect width="1022.84" height="813.16" fill="white"/>
</clipPath>
</defs>
</svg>
