<?xml version="1.0" encoding="UTF-8"?>
<svg xmlns="http://www.w3.org/2000/svg" xmlns:xlink="http://www.w3.org/1999/xlink" width="80pt" height="80pt" viewBox="0 0 80 80" version="1.1">
<g id="surface1">
<path style=" stroke:none;fill-rule:nonzero;fill:rgb(30.980392%,37.254902%,56.078431%);fill-opacity:1;" d="M 37.925781 33.980469 C 36.390625 13.207031 7.1875 5.695312 7.117188 6.09375 C 7.066406 8.691406 7.011719 11.289062 6.957031 13.886719 C 13.898438 15.296875 31.023438 21.726562 37.925781 33.980469 "/>
<path style=" stroke:none;fill-rule:nonzero;fill:rgb(30.980392%,37.254902%,56.078431%);fill-opacity:1;" d="M 37.546875 23.894531 C 36.21875 7.480469 13.695312 0.152344 13.65625 0.402344 C 13.636719 1.777344 13.621094 3.148438 13.605469 4.523438 C 20.683594 7.464844 32.210938 14.160156 37.546875 23.894531 "/>
<path style=" stroke:none;fill-rule:nonzero;fill:rgb(30.980392%,37.254902%,56.078431%);fill-opacity:1;" d="M 26.191406 25.457031 C 16.097656 18.59375 3.378906 16.816406 3.328125 17.109375 C 3.207031 21.953125 3.082031 26.796875 2.960938 31.640625 C 17.746094 32.492188 18.632812 41.6875 17.738281 47.570312 L 2.476562 52.472656 L 1.742188 79.601562 L 28.539062 69.214844 C 31.667969 67.9375 34.796875 66.703125 37.929688 65.578125 L 37.929688 46.875 C 37.929688 38.523438 33.671875 30.546875 26.191406 25.457031 "/>
<path style=" stroke:none;fill-rule:nonzero;fill:rgb(30.980392%,37.254902%,56.078431%);fill-opacity:1;" d="M 42.074219 33.980469 C 43.609375 13.207031 72.8125 5.695312 72.882812 6.09375 C 72.933594 8.691406 72.988281 11.289062 73.042969 13.886719 C 66.101562 15.296875 48.980469 21.726562 42.074219 33.980469 "/>
<path style=" stroke:none;fill-rule:nonzero;fill:rgb(30.980392%,37.254902%,56.078431%);fill-opacity:1;" d="M 42.453125 23.894531 C 43.78125 7.480469 66.304688 0.152344 66.347656 0.402344 C 66.363281 1.777344 66.378906 3.148438 66.394531 4.523438 C 59.316406 7.464844 47.789062 14.160156 42.453125 23.894531 "/>
<path style=" stroke:none;fill-rule:nonzero;fill:rgb(30.980392%,37.254902%,56.078431%);fill-opacity:1;" d="M 53.808594 25.457031 C 63.902344 18.59375 76.621094 16.816406 76.671875 17.109375 C 76.792969 21.953125 76.917969 26.796875 77.039062 31.640625 C 62.253906 32.492188 61.367188 41.6875 62.261719 47.570312 L 77.523438 52.472656 L 78.257812 79.601562 L 51.460938 69.214844 C 48.332031 67.9375 45.203125 66.703125 42.070312 65.578125 L 42.070312 46.875 C 42.074219 38.523438 46.328125 30.546875 53.808594 25.457031 "/>
</g>
</svg>
