<?xml version="1.0" encoding="UTF-8"?>
<svg xmlns="http://www.w3.org/2000/svg" xmlns:xlink="http://www.w3.org/1999/xlink" width="16pt" height="16pt" viewBox="0 0 16 16" version="1.1">
<g id="surface1">
<path style=" stroke:none;fill-rule:nonzero;fill:rgb(30.980392%,37.254902%,56.078431%);fill-opacity:1;" d="M 7.585938 6.796875 C 7.277344 2.640625 1.4375 1.140625 1.421875 1.21875 C 1.414062 1.738281 1.402344 2.257812 1.390625 2.777344 C 2.78125 3.058594 6.203125 4.34375 7.585938 6.796875 "/>
<path style=" stroke:none;fill-rule:nonzero;fill:rgb(30.980392%,37.254902%,56.078431%);fill-opacity:1;" d="M 7.507812 4.777344 C 7.242188 1.496094 2.738281 0.03125 2.730469 0.0820312 C 2.726562 0.355469 2.722656 0.628906 2.722656 0.90625 C 4.136719 1.492188 6.441406 2.832031 7.507812 4.777344 "/>
<path style=" stroke:none;fill-rule:nonzero;fill:rgb(30.980392%,37.254902%,56.078431%);fill-opacity:1;" d="M 5.238281 5.089844 C 3.21875 3.71875 0.675781 3.363281 0.664062 3.421875 C 0.640625 4.390625 0.617188 5.359375 0.59375 6.328125 C 3.550781 6.5 3.726562 8.335938 3.546875 9.515625 L 0.496094 10.496094 L 0.347656 15.921875 L 5.707031 13.84375 C 6.332031 13.585938 6.960938 13.339844 7.585938 13.117188 L 7.585938 9.375 C 7.585938 7.703125 6.734375 6.109375 5.238281 5.089844 "/>
<path style=" stroke:none;fill-rule:nonzero;fill:rgb(30.980392%,37.254902%,56.078431%);fill-opacity:1;" d="M 8.414062 6.796875 C 8.722656 2.640625 14.5625 1.140625 14.578125 1.21875 C 14.585938 1.738281 14.597656 2.257812 14.609375 2.777344 C 13.21875 3.058594 9.796875 4.34375 8.414062 6.796875 "/>
<path style=" stroke:none;fill-rule:nonzero;fill:rgb(30.980392%,37.254902%,56.078431%);fill-opacity:1;" d="M 8.492188 4.777344 C 8.757812 1.496094 13.261719 0.03125 13.269531 0.0820312 C 13.273438 0.355469 13.277344 0.628906 13.277344 0.90625 C 11.863281 1.492188 9.558594 2.832031 8.492188 4.777344 "/>
<path style=" stroke:none;fill-rule:nonzero;fill:rgb(30.980392%,37.254902%,56.078431%);fill-opacity:1;" d="M 10.761719 5.089844 C 12.78125 3.71875 15.324219 3.363281 15.335938 3.421875 C 15.359375 4.390625 15.382812 5.359375 15.40625 6.328125 C 12.449219 6.5 12.273438 8.335938 12.453125 9.515625 L 15.503906 10.496094 L 15.652344 15.921875 L 10.292969 13.84375 C 9.667969 13.585938 9.039062 13.339844 8.414062 13.117188 L 8.414062 9.375 C 8.414062 7.703125 9.265625 6.109375 10.761719 5.089844 "/>
</g>
</svg>
