<?xml version="1.0" encoding="UTF-8"?>
<svg xmlns="http://www.w3.org/2000/svg" xmlns:xlink="http://www.w3.org/1999/xlink" width="128pt" height="128pt" viewBox="0 0 128 128" version="1.1">
<g id="surface1">
<path style=" stroke:none;fill-rule:nonzero;fill:rgb(30.980392%,37.254902%,56.078431%);fill-opacity:1;" d="M 60.683594 54.371094 C 58.222656 21.128906 11.496094 9.109375 11.390625 9.753906 C 11.304688 13.90625 11.21875 18.0625 11.132812 22.21875 C 22.238281 24.476562 49.636719 34.765625 60.683594 54.371094 "/>
<path style=" stroke:none;fill-rule:nonzero;fill:rgb(30.980392%,37.254902%,56.078431%);fill-opacity:1;" d="M 60.074219 38.230469 C 57.949219 11.972656 21.914062 0.242188 21.847656 0.644531 C 21.820312 2.84375 21.796875 5.039062 21.773438 7.234375 C 33.097656 11.945312 51.539062 22.65625 60.074219 38.230469 "/>
<path style=" stroke:none;fill-rule:nonzero;fill:rgb(30.980392%,37.254902%,56.078431%);fill-opacity:1;" d="M 41.90625 40.734375 C 25.753906 29.753906 5.40625 26.90625 5.328125 27.371094 C 5.128906 35.125 4.933594 42.875 4.738281 50.625 C 28.394531 51.984375 29.808594 66.703125 28.382812 76.113281 L 3.960938 83.953125 L 2.789062 127.363281 L 45.660156 110.746094 C 50.667969 108.699219 55.675781 106.726562 60.683594 104.921875 L 60.683594 75 C 60.683594 61.636719 53.875 48.875 41.90625 40.734375 "/>
<path style=" stroke:none;fill-rule:nonzero;fill:rgb(30.980392%,37.254902%,56.078431%);fill-opacity:1;" d="M 67.316406 54.371094 C 69.777344 21.128906 116.503906 9.109375 116.609375 9.753906 C 116.695312 13.90625 116.78125 18.0625 116.867188 22.21875 C 105.761719 24.476562 78.367188 34.765625 67.316406 54.371094 "/>
<path style=" stroke:none;fill-rule:nonzero;fill:rgb(30.980392%,37.254902%,56.078431%);fill-opacity:1;" d="M 67.925781 38.230469 C 70.050781 11.972656 106.085938 0.242188 106.152344 0.644531 C 106.179688 2.84375 106.203125 5.039062 106.230469 7.234375 C 94.902344 11.945312 76.460938 22.65625 67.925781 38.230469 "/>
<path style=" stroke:none;fill-rule:nonzero;fill:rgb(30.980392%,37.254902%,56.078431%);fill-opacity:1;" d="M 86.09375 40.734375 C 102.246094 29.753906 122.59375 26.90625 122.671875 27.371094 C 122.871094 35.125 123.066406 42.875 123.261719 50.625 C 99.605469 51.984375 98.191406 66.703125 99.617188 76.113281 L 124.039062 83.953125 L 125.210938 127.363281 L 82.339844 110.746094 C 77.332031 108.699219 72.324219 106.726562 67.316406 104.921875 L 67.316406 75 C 67.316406 61.636719 74.125 48.875 86.09375 40.734375 "/>
</g>
</svg>
