<svg width="197" height="203" viewBox="0 0 197 203" fill="none" xmlns="http://www.w3.org/2000/svg">
<path d="M92.725 86.0591C88.784 32.8231 13.949 13.5711 13.778 14.6001C13.64 21.2551 13.501 27.9091 13.363 34.5641C31.149 38.1801 75.029 54.6581 92.725 86.0591Z" fill="#EDEBE9"/>
<path d="M91.748 60.2121C88.344 18.1541 30.632 -0.629909 30.525 0.0160908C30.484 3.53309 30.444 7.05109 30.404 10.5691C48.542 18.1101 78.079 35.2671 91.748 60.2121Z" fill="#EDEBE9"/>
<path d="M62.65 64.2191C36.781 46.6321 4.192 42.0741 4.068 42.8201C3.752 55.2331 3.437 67.6461 3.122 80.0591C41.011 82.2401 43.278 105.808 40.99 120.883L1.878 133.439L0 202.962L68.665 176.348C76.685 173.069 84.705 169.912 92.726 167.022V119.1C92.726 97.6941 81.822 77.2551 62.65 64.2191Z" fill="#EDEBE9"/>
<path d="M103.346 86.0591C107.287 32.8231 182.122 13.5711 182.293 14.6001C182.431 21.2551 182.57 27.9091 182.708 34.5641C164.922 38.1801 121.043 54.6581 103.346 86.0591Z" fill="#EDEBE9"/>
<path d="M104.324 60.2121C107.728 18.1541 165.44 -0.629909 165.547 0.0160908C165.588 3.53309 165.628 7.05109 165.668 10.5691C147.53 18.1101 117.993 35.2671 104.324 60.2121Z" fill="#EDEBE9"/>
<path d="M133.421 64.2191C159.29 46.6321 191.879 42.0741 192.003 42.8201C192.319 55.2331 192.635 67.6461 192.949 80.0591C155.06 82.2401 152.793 105.808 155.081 120.883L194.193 133.439L196.071 202.962L127.406 176.348C119.386 173.069 111.366 169.912 103.345 167.022V119.1C103.346 97.6941 114.25 77.2551 133.421 64.2191Z" fill="#EDEBE9"/>
</svg>
