<?xml version="1.0" encoding="UTF-8"?>
<svg xmlns="http://www.w3.org/2000/svg" xmlns:xlink="http://www.w3.org/1999/xlink" width="32pt" height="32pt" viewBox="0 0 32 32" version="1.1">
<g id="surface1">
<path style=" stroke:none;fill-rule:nonzero;fill:rgb(30.980392%,37.254902%,56.078431%);fill-opacity:1;" d="M 15.171875 13.59375 C 14.554688 5.28125 2.875 2.277344 2.847656 2.4375 C 2.824219 3.476562 2.804688 4.515625 2.78125 5.554688 C 5.558594 6.117188 12.410156 8.691406 15.171875 13.59375 "/>
<path style=" stroke:none;fill-rule:nonzero;fill:rgb(30.980392%,37.254902%,56.078431%);fill-opacity:1;" d="M 15.019531 9.558594 C 14.488281 2.992188 5.476562 0.0625 5.460938 0.160156 C 5.457031 0.710938 5.449219 1.257812 5.441406 1.808594 C 8.273438 2.984375 12.886719 5.664062 15.019531 9.558594 "/>
<path style=" stroke:none;fill-rule:nonzero;fill:rgb(30.980392%,37.254902%,56.078431%);fill-opacity:1;" d="M 10.476562 10.183594 C 6.4375 7.4375 1.351562 6.726562 1.332031 6.84375 C 1.28125 8.78125 1.234375 10.71875 1.183594 12.65625 C 7.097656 12.996094 7.453125 16.675781 7.09375 19.027344 L 0.988281 20.988281 L 0.695312 31.839844 L 11.414062 27.6875 C 12.667969 27.175781 13.917969 26.683594 15.171875 26.230469 L 15.171875 18.75 C 15.171875 15.410156 13.46875 12.21875 10.476562 10.183594 "/>
<path style=" stroke:none;fill-rule:nonzero;fill:rgb(30.980392%,37.254902%,56.078431%);fill-opacity:1;" d="M 16.828125 13.59375 C 17.445312 5.28125 29.125 2.277344 29.152344 2.4375 C 29.175781 3.476562 29.195312 4.515625 29.21875 5.554688 C 26.441406 6.117188 19.589844 8.691406 16.828125 13.59375 "/>
<path style=" stroke:none;fill-rule:nonzero;fill:rgb(30.980392%,37.254902%,56.078431%);fill-opacity:1;" d="M 16.980469 9.558594 C 17.511719 2.992188 26.523438 0.0625 26.539062 0.160156 C 26.542969 0.710938 26.550781 1.257812 26.558594 1.808594 C 23.726562 2.984375 19.117188 5.664062 16.980469 9.558594 "/>
<path style=" stroke:none;fill-rule:nonzero;fill:rgb(30.980392%,37.254902%,56.078431%);fill-opacity:1;" d="M 21.523438 10.183594 C 25.5625 7.4375 30.648438 6.726562 30.667969 6.84375 C 30.71875 8.78125 30.765625 10.71875 30.816406 12.65625 C 24.902344 12.996094 24.546875 16.675781 24.90625 19.027344 L 31.011719 20.988281 L 31.304688 31.839844 L 20.585938 27.6875 C 19.332031 27.175781 18.082031 26.683594 16.828125 26.230469 L 16.828125 18.75 C 16.828125 15.410156 18.53125 12.21875 21.523438 10.183594 "/>
</g>
</svg>
