<svg width="427" height="287" viewBox="0 0 427 287" fill="none" xmlns="http://www.w3.org/2000/svg">
<path d="M278.395 125.296C277.904 127.937 277.314 130.552 276.627 133.139C276.552 133.44 276.469 133.736 276.385 134.036H266.823C266.008 134.037 265.228 134.368 264.652 134.956C264.076 135.545 263.752 136.343 263.751 137.175V165.032C263.461 165.584 263.167 166.131 262.873 166.678C261.355 169.503 259.775 172.297 258.16 175.055C231.826 219.879 195.097 257.388 151.217 284.272L153.815 278.28C152.863 278.213 151.906 278.146 150.954 278.079C130.218 276.63 109.412 275.025 89.1636 270.262C67.9804 265.28 47.2581 256.639 30.6564 242.311C14.0502 227.979 1.87662 207.513 0.187013 185.369C-0.376383 177.758 0.376832 170.106 2.41211 162.763C6.30454 148.628 14.8096 135.911 27.0798 128.386C46.354 116.569 71.4957 118.978 91.8143 128.807C112.129 138.633 128.665 154.897 144.81 170.88C128.509 142.315 105.812 118.107 78.5831 100.242C69.5603 94.3403 59.9847 89.0846 52.3136 81.4388C44.6468 73.7974 38.99 63.0842 40.3462 52.2276C41.8865 39.9135 51.7563 30.568 61.6435 23.3616C65.5931 20.4827 69.67 17.7517 73.8742 15.2404C85.7362 8.13719 98.5682 2.77837 112.12 0.791788C130.477 -1.90332 150.304 2.18643 164.378 14.5274C180.234 28.4335 186.737 50.8598 186.119 72.3131C195.887 57.8016 210.953 46.6938 227.967 46.223C245.631 45.7387 262.421 57.1424 271.268 72.775C280.111 88.403 281.7 107.56 278.395 125.296Z" fill="url(#paint0_linear)"/>
<path d="M166.638 185.564C176.984 184.633 186.541 183.545 196.566 180.646C206.283 177.836 215.634 173.133 222.552 165.452C229.993 157.191 234.009 146.463 236.843 135.783C238.423 129.829 239.721 123.791 240.946 117.751C242.275 111.198 243.456 104.616 244.489 98.0053C246.545 84.8458 248.012 71.6089 248.892 58.2945C248.998 56.6783 249.096 55.0615 249.184 53.4442C249.239 52.4466 247.72 52.4497 247.666 53.4442C246.943 66.5684 245.643 79.6415 243.767 92.6634C241.914 105.457 239.544 118.196 236.538 130.761C233.99 141.405 230.692 152.215 224.16 161.076C218.033 169.385 209.185 174.815 199.631 178.062C189.91 181.365 179.659 182.684 169.5 183.665C168.254 183.785 167.885 183.9 166.638 184.012C165.672 184.099 165.663 185.652 166.638 185.564L166.638 185.564Z" fill="white"/>
<path d="M3.28759 163.908C16.3406 164.647 29.2608 166.974 41.775 170.838C54.2946 174.694 66.3255 180.045 77.6185 186.781C88.5305 193.294 98.6605 201.088 107.803 210.003C116.675 218.661 124.583 228.296 131.381 238.731C138.21 249.193 143.869 260.404 148.253 272.155C148.787 273.593 149.302 275.038 149.798 276.491C150.117 277.428 151.585 277.025 151.262 276.079C147.16 264.08 141.754 252.59 135.143 241.824C128.534 231.057 120.778 221.072 112.016 212.051C103.114 202.891 93.2061 194.812 82.49 187.974C59.9897 173.652 34.4858 164.988 8.07256 162.693C6.47926 162.556 4.88427 162.444 3.2876 162.356C2.31116 162.301 2.31416 163.853 3.2876 163.908L3.28759 163.908Z" fill="white"/>
<path d="M74.2835 17.0593C82.6294 19.7715 90.5401 23.7217 97.7625 28.7833C105.143 33.9907 111.873 40.0987 117.806 46.972C124.057 54.2025 129.615 62.0294 134.403 70.3451C139.481 79.1252 143.893 88.2906 147.599 97.7605C151.415 107.483 154.625 117.442 157.209 127.579C159.836 137.837 161.887 148.239 163.354 158.735C164.813 169.119 165.697 179.58 165.999 190.067C166.304 200.094 166.014 210.131 165.131 220.123C164.322 229.445 162.846 238.693 160.714 247.794C158.821 256.014 156.153 264.027 152.747 271.721C151.958 273.468 151.121 275.19 150.236 276.888C149.777 277.769 151.087 278.553 151.547 277.671C155.311 270.322 158.316 262.593 160.515 254.608C162.981 245.72 164.769 236.649 165.862 227.478C167.074 217.528 167.664 207.509 167.629 197.482C167.607 186.948 166.994 176.424 165.791 165.962C164.588 155.37 162.802 144.855 160.442 134.468C158.087 124.063 155.1 113.819 151.497 103.795C148.026 94.0906 143.869 84.6568 139.06 75.5678C134.479 66.8947 129.142 58.6622 123.111 50.9706C117.385 43.6471 110.847 37.0264 103.628 31.241C96.6675 25.6791 88.9759 21.1455 80.7793 17.7733C78.7763 16.9586 76.7456 16.2219 74.6872 15.5631C73.7528 15.2627 73.3531 16.7602 74.2835 17.0593H74.2835Z" fill="white"/>
<path d="M164.351 286.953C224.337 286.953 272.966 284.945 272.966 282.469C272.966 279.992 224.337 277.984 164.351 277.984C104.364 277.984 55.7357 279.992 55.7357 282.469C55.7357 284.945 104.364 286.953 164.351 286.953Z" fill="#E6E6E6"/>
<path d="M260.313 142.013C260.26 142.255 260.224 142.501 260.208 142.749L241.357 153.862L236.774 151.167L231.889 157.701L241.692 164.841L263.199 147.503C264.076 147.835 265.032 147.886 265.938 147.649C266.844 147.412 267.658 146.9 268.272 146.179C268.886 145.458 269.271 144.563 269.375 143.613C269.479 142.663 269.298 141.703 268.855 140.861C268.413 140.019 267.73 139.335 266.897 138.899C266.065 138.464 265.122 138.297 264.195 138.423C263.268 138.548 262.4 138.958 261.706 139.6C261.013 140.241 260.527 141.083 260.313 142.013V142.013Z" fill="#FFB8B8"/>
<path d="M217.38 148.832L232.223 159.642L238.862 151.137L224.433 139.306C223.812 138.797 223.096 138.423 222.329 138.206C221.562 137.99 220.759 137.936 219.971 138.047C219.182 138.159 218.425 138.434 217.744 138.855C217.063 139.277 216.474 139.836 216.012 140.498V140.498C215.112 141.789 214.75 143.392 215.007 144.954C215.263 146.517 216.117 147.912 217.38 148.832Z" fill="#090916"/>
<path d="M186.739 272.182L191.943 273.576L199.68 253.726L191.999 251.669L186.739 272.182Z" fill="#FFB8B8"/>
<path d="M200.714 281.202L184.357 276.822L186.013 270.364L196.05 273.052C197.726 273.5 199.159 274.611 200.034 276.14C200.909 277.668 201.153 279.489 200.714 281.202V281.202V281.202Z" fill="#2F2E41"/>
<path d="M233.003 275.969L238.3 275.002L237.171 253.667L229.354 255.094L233.003 275.969Z" fill="#FFB8B8"/>
<path d="M249.393 278.163L232.747 281.202L231.598 274.63L241.813 272.765C242.657 272.611 243.523 272.628 244.361 272.816C245.199 273.004 245.993 273.359 246.697 273.86C247.401 274.361 248.001 274.999 248.464 275.738C248.926 276.476 249.242 277.3 249.393 278.163V278.163V278.163Z" fill="#2F2E41"/>
<path d="M222.574 119.064C223.879 119.389 224.941 120.747 225.579 122.322C226.167 123.975 226.565 125.693 226.765 127.44C227.266 130.695 227.748 134.218 226.711 137.232C225.497 140.764 222.26 142.614 219.453 141.745C216.646 140.875 214.413 137.612 213.651 133.855C212.956 130.059 213.404 126.137 214.934 122.606C215.731 120.751 216.831 119.039 218.291 118.202C219.008 117.76 219.862 117.61 220.682 117.785C221.501 117.96 222.226 118.445 222.71 119.143" fill="#2F2E41"/>
<path d="M229.959 177.983L240.042 270.269L231.714 273.5L216.354 211.616L194.97 268.199L185.854 268.716C185.854 268.716 198.362 180.674 207.631 178.673L229.959 177.983Z" fill="#2F2E41"/>
<path d="M221.489 130.841C227.442 130.841 232.268 125.91 232.268 119.827C232.268 113.744 227.442 108.813 221.489 108.813C215.536 108.813 210.711 113.744 210.711 119.827C210.711 125.91 215.536 130.841 221.489 130.841Z" fill="#FFB8B8"/>
<path d="M226.115 135.462L214.467 133.91C214.467 133.91 206.871 143.224 207.378 159.267C207.884 175.309 206.111 180.225 206.111 180.225L230.398 180.673C226.887 175.741 241.571 147.41 226.115 135.462Z" fill="#090916"/>
<path d="M232.372 182.916C232.13 182.917 231.887 182.939 231.648 182.98L216.747 166.77L218.266 161.595L210.923 158.232L206.365 169.616L227.803 187.042C227.688 187.991 227.858 188.953 228.291 189.8C228.724 190.647 229.398 191.34 230.226 191.786C231.053 192.232 231.994 192.409 232.922 192.296C233.851 192.182 234.724 191.782 235.425 191.149C236.125 190.516 236.621 189.68 236.846 188.752C237.07 187.824 237.013 186.849 236.682 185.955C236.35 185.061 235.76 184.292 234.991 183.749C234.221 183.206 233.308 182.915 232.372 182.916V182.916Z" fill="#FFB8B8"/>
<path d="M216.052 141.768L209.15 159.008L218.772 163.665L226.741 146.604C227.084 145.87 227.276 145.073 227.307 144.26C227.337 143.447 227.205 142.637 226.918 141.878C226.631 141.119 226.196 140.428 225.639 139.848C225.082 139.267 224.414 138.809 223.678 138.501V138.501C222.967 138.204 222.206 138.052 221.438 138.056C220.67 138.059 219.91 138.217 219.202 138.521C218.494 138.824 217.852 139.267 217.311 139.824C216.77 140.382 216.342 141.042 216.052 141.768V141.768Z" fill="#090916"/>
<path d="M218.67 129.841C220.359 128.845 220.539 126.443 220.309 124.465C220.08 122.486 219.696 120.281 220.834 118.663C222.193 116.732 224.922 116.694 227.248 116.631C229.574 116.568 232.407 115.872 233.01 113.575C233.408 112.057 232.556 110.429 231.333 109.476C230.11 108.523 228.581 108.102 227.094 107.702C223.768 106.807 220.333 105.904 216.927 106.396C213.554 106.883 210.504 108.708 208.437 111.476C206.371 114.244 205.454 117.732 205.885 121.185C206.436 125.603 207.235 127.532 206.711 129.48C205.733 133.108 201.519 135.438 201.435 139.2C201.369 142.143 203.913 144.413 206.394 145.907C208.363 147.092 210.487 148.098 212.756 148.375C215.025 148.653 217.467 148.122 219.157 146.55C221.337 144.524 221.876 141.138 221.251 138.196C220.626 135.253 219.023 132.64 217.437 130.102" fill="#2F2E41"/>
<path d="M422.613 133.139H266.822C265.775 133.141 264.771 133.567 264.031 134.323C263.291 135.08 262.874 136.105 262.872 137.175V239.419C262.874 240.489 263.291 241.514 264.031 242.271C264.771 243.027 265.775 243.453 266.822 243.455H422.613C423.66 243.453 424.664 243.027 425.404 242.271C426.145 241.514 426.561 240.489 426.563 239.419V137.175C426.561 136.105 426.145 135.08 425.404 134.323C424.664 133.567 423.66 133.141 422.613 133.139V133.139ZM425.685 239.419C425.684 240.251 425.36 241.049 424.785 241.637C424.209 242.226 423.428 242.557 422.613 242.558H266.822C266.008 242.557 265.227 242.226 264.651 241.637C264.075 241.049 263.751 240.251 263.75 239.419V137.175C263.751 136.343 264.075 135.545 264.651 134.956C265.227 134.368 266.008 134.037 266.822 134.036H422.613C423.428 134.037 424.209 134.368 424.785 134.956C425.36 135.545 425.684 136.343 425.685 137.175V239.419Z" fill="#3F3D56"/>
<path d="M300.076 184.035H275.5C274.511 184.034 273.563 183.632 272.864 182.917C272.165 182.202 271.771 181.234 271.77 180.223V155.111C271.771 154.1 272.165 153.131 272.864 152.417C273.563 151.702 274.511 151.3 275.5 151.299H300.076C301.065 151.3 302.013 151.702 302.712 152.417C303.412 153.131 303.805 154.1 303.806 155.111V180.223C303.805 181.234 303.412 182.202 302.712 182.917C302.013 183.632 301.065 184.034 300.076 184.035V184.035Z" fill="url(#paint1_linear)"/>
<path d="M414.5 210.721H274.946C274.189 210.721 273.463 210.414 272.929 209.867C272.394 209.321 272.093 208.579 272.093 207.806C272.093 207.033 272.394 206.292 272.929 205.745C273.463 205.198 274.189 204.891 274.946 204.891H414.5C415.256 204.891 415.982 205.198 416.517 205.745C417.052 206.292 417.352 207.033 417.352 207.806C417.352 208.579 417.052 209.321 416.517 209.867C415.982 210.414 415.256 210.721 414.5 210.721V210.721Z" fill="#CCCCCC"/>
<path d="M414.593 196.595H275.039C274.283 196.595 273.557 196.288 273.022 195.741C272.487 195.195 272.187 194.453 272.187 193.68C272.187 192.907 272.487 192.166 273.022 191.619C273.557 191.073 274.283 190.766 275.039 190.766H414.593C415.35 190.766 416.075 191.073 416.61 191.619C417.145 192.166 417.446 192.907 417.446 193.68C417.446 194.453 417.145 195.195 416.61 195.741C416.075 196.288 415.35 196.595 414.593 196.595V196.595Z" fill="#CCCCCC"/>
<path d="M345.694 177.308H325.068C324.311 177.308 323.586 177.001 323.051 176.454C322.516 175.908 322.215 175.166 322.215 174.393C322.215 173.62 322.516 172.879 323.051 172.332C323.586 171.785 324.311 171.478 325.068 171.478H345.694C346.45 171.478 347.176 171.785 347.711 172.332C348.246 172.879 348.546 173.62 348.546 174.393C348.546 175.166 348.246 175.908 347.711 176.454C347.176 177.001 346.45 177.308 345.694 177.308V177.308Z" fill="#CCCCCC"/>
<path d="M414.593 162.962H325.068C324.311 162.962 323.586 162.655 323.051 162.109C322.516 161.562 322.215 160.821 322.215 160.048C322.215 159.275 322.516 158.533 323.051 157.986C323.586 157.44 324.311 157.133 325.068 157.133H414.593C415.35 157.133 416.075 157.44 416.61 157.986C417.145 158.533 417.446 159.275 417.446 160.048C417.446 160.821 417.145 161.562 416.61 162.109C416.075 162.655 415.35 162.962 414.593 162.962V162.962Z" fill="#CCCCCC"/>
<path d="M342.183 225.071H274.946C274.189 225.071 273.463 224.764 272.929 224.217C272.394 223.671 272.093 222.929 272.093 222.156C272.093 221.383 272.394 220.642 272.929 220.095C273.463 219.548 274.189 219.241 274.946 219.241H342.183C342.94 219.241 343.665 219.548 344.2 220.095C344.735 220.642 345.036 221.383 345.036 222.156C345.036 222.929 344.735 223.671 344.2 224.217C343.665 224.764 342.94 225.071 342.183 225.071V225.071Z" fill="#CCCCCC"/>
<defs>
<linearGradient id="paint0_linear" x1="185.574" y1="-3.46563e-06" x2="146.377" y2="283.981" gradientUnits="userSpaceOnUse">
<stop offset="0.442628" stop-color="#7F847E"/>
<stop offset="1" stop-color="#76A292" stop-opacity="0"/>
</linearGradient>
<linearGradient id="paint1_linear" x1="287.788" y1="151.299" x2="287.349" y2="183.643" gradientUnits="userSpaceOnUse">
<stop stop-color="#090916"/>
<stop offset="1" stop-color="#090916" stop-opacity="0"/>
</linearGradient>
</defs>
</svg>
