<svg xmlns="http://www.w3.org/2000/svg" width="75" viewBox="0 0 75 30" height="30" version="1.0"><defs><clipPath id="a"><path d="M 4 6.5 L 10 6.5 L 10 12 L 4 12 Z M 4 6.5"/></clipPath><clipPath id="b"><path d="M 2.300781 10 L 10 10 L 10 23.195312 L 2.300781 23.195312 Z M 2.300781 10"/></clipPath><clipPath id="c"><path d="M 10 6.5 L 16 6.5 L 16 12 L 10 12 Z M 10 6.5"/></clipPath><clipPath id="d"><path d="M 10 10 L 18.269531 10 L 18.269531 23.195312 L 10 23.195312 Z M 10 10"/></clipPath></defs><path fill="#EDEDED" d="M 9.816406 13.578125 C 9.5 9.199219 3.433594 7.617188 3.417969 7.699219 C 3.410156 8.246094 3.398438 8.796875 3.386719 9.34375 C 4.828125 9.640625 8.382812 10.996094 9.816406 13.578125 Z M 9.816406 13.578125"/><g clip-path="url(#a)"><path fill="#EDEDED" d="M 9.738281 11.453125 C 9.460938 7.992188 4.785156 6.449219 4.777344 6.5 C 4.773438 6.789062 4.769531 7.078125 4.765625 7.371094 C 6.238281 7.988281 8.632812 9.398438 9.738281 11.453125 Z M 9.738281 11.453125"/></g><g clip-path="url(#b)"><path fill="#EDEDED" d="M 7.378906 11.78125 C 5.285156 10.335938 2.644531 9.960938 2.632812 10.019531 C 2.605469 11.042969 2.582031 12.0625 2.554688 13.082031 C 5.625 13.261719 5.808594 15.199219 5.625 16.441406 L 2.457031 17.472656 L 2.304688 23.191406 L 7.867188 21 C 8.519531 20.730469 9.167969 20.472656 9.816406 20.234375 L 9.816406 16.292969 C 9.816406 14.535156 8.933594 12.851562 7.378906 11.78125 Z M 7.378906 11.78125"/></g><path fill="#EDEDED" d="M 10.679688 13.578125 C 11 9.199219 17.0625 7.617188 17.078125 7.699219 C 17.089844 8.246094 17.097656 8.796875 17.109375 9.34375 C 15.667969 9.640625 12.113281 10.996094 10.679688 13.578125 Z M 10.679688 13.578125"/><g clip-path="url(#c)"><path fill="#EDEDED" d="M 10.757812 11.453125 C 11.035156 7.992188 15.710938 6.449219 15.71875 6.5 C 15.722656 6.789062 15.726562 7.078125 15.730469 7.371094 C 14.257812 7.988281 11.867188 9.398438 10.757812 11.453125 Z M 10.757812 11.453125"/></g><g clip-path="url(#d)"><path fill="#EDEDED" d="M 13.117188 11.78125 C 15.210938 10.335938 17.855469 9.960938 17.863281 10.019531 C 17.890625 11.042969 17.914062 12.0625 17.941406 13.082031 C 14.871094 13.261719 14.6875 15.199219 14.871094 16.441406 L 18.042969 17.472656 L 18.195312 23.191406 L 12.628906 21 C 11.980469 20.730469 11.328125 20.472656 10.679688 20.234375 L 10.679688 16.292969 C 10.679688 14.535156 11.5625 12.851562 13.117188 11.78125 Z M 13.117188 11.78125"/></g><g fill="#EDEDED"><g><g><path d="M 3.34375 0.140625 C 1.59375 0.140625 0.554688 -0.757812 0.234375 -2.5625 L 1.609375 -2.796875 C 1.691406 -2.222656 1.882812 -1.773438 2.1875 -1.453125 C 2.5 -1.140625 2.890625 -0.984375 3.359375 -0.984375 C 3.867188 -0.984375 4.269531 -1.15625 4.5625 -1.5 C 4.851562 -1.851562 5 -2.367188 5 -3.046875 L 5 -9.1875 L 3.015625 -9.1875 L 3.015625 -10.328125 L 6.390625 -10.328125 L 6.390625 -3.078125 C 6.390625 -2.078125 6.117188 -1.289062 5.578125 -0.71875 C 5.035156 -0.144531 4.289062 0.140625 3.34375 0.140625 Z M 3.34375 0.140625" transform="translate(25.07 19.6)"/></g></g></g><g fill="#EDEDED"><g><g><path d="M 3.03125 0.140625 C 2.238281 0.140625 1.640625 -0.0664062 1.234375 -0.484375 C 0.835938 -0.898438 0.640625 -1.476562 0.640625 -2.21875 C 0.640625 -3.039062 0.910156 -3.671875 1.453125 -4.109375 C 1.992188 -4.546875 2.863281 -4.78125 4.0625 -4.8125 L 5.84375 -4.84375 L 5.84375 -5.265625 C 5.84375 -5.910156 5.703125 -6.375 5.421875 -6.65625 C 5.148438 -6.9375 4.722656 -7.078125 4.140625 -7.078125 C 3.546875 -7.078125 3.113281 -6.972656 2.84375 -6.765625 C 2.582031 -6.566406 2.425781 -6.25 2.375 -5.8125 L 0.984375 -5.9375 C 1.210938 -7.363281 2.273438 -8.078125 4.171875 -8.078125 C 5.171875 -8.078125 5.921875 -7.847656 6.421875 -7.390625 C 6.921875 -6.929688 7.171875 -6.269531 7.171875 -5.40625 L 7.171875 -2 C 7.171875 -1.601562 7.222656 -1.304688 7.328125 -1.109375 C 7.429688 -0.910156 7.628906 -0.8125 7.921875 -0.8125 C 8.046875 -0.8125 8.1875 -0.828125 8.34375 -0.859375 L 8.34375 -0.046875 C 8.019531 0.0351562 7.679688 0.078125 7.328125 0.078125 C 6.835938 0.078125 6.484375 -0.0507812 6.265625 -0.3125 C 6.046875 -0.570312 5.921875 -0.972656 5.890625 -1.515625 L 5.84375 -1.515625 C 5.507812 -0.910156 5.117188 -0.484375 4.671875 -0.234375 C 4.222656 0.015625 3.675781 0.140625 3.03125 0.140625 Z M 3.34375 -0.84375 C 3.820312 -0.84375 4.25 -0.953125 4.625 -1.171875 C 5 -1.390625 5.296875 -1.691406 5.515625 -2.078125 C 5.734375 -2.460938 5.84375 -2.859375 5.84375 -3.265625 L 5.84375 -3.921875 L 4.40625 -3.890625 C 3.78125 -3.878906 3.304688 -3.8125 2.984375 -3.6875 C 2.660156 -3.570312 2.414062 -3.390625 2.25 -3.140625 C 2.082031 -2.898438 2 -2.582031 2 -2.1875 C 2 -1.757812 2.113281 -1.425781 2.34375 -1.1875 C 2.570312 -0.957031 2.90625 -0.84375 3.34375 -0.84375 Z M 3.34375 -0.84375" transform="translate(32.575 19.6)"/></g></g></g><g fill="#EDEDED"><g><g><path d="M 7.71875 -4 C 7.71875 -1.238281 6.742188 0.140625 4.796875 0.140625 C 4.203125 0.140625 3.703125 0.0351562 3.296875 -0.171875 C 2.898438 -0.390625 2.578125 -0.742188 2.328125 -1.234375 L 2.3125 -1.234375 C 2.3125 -1.078125 2.300781 -0.84375 2.28125 -0.53125 C 2.269531 -0.226562 2.257812 -0.0507812 2.25 0 L 0.96875 0 C 1 -0.257812 1.015625 -0.804688 1.015625 -1.640625 L 1.015625 -10.875 L 2.328125 -10.875 L 2.328125 -7.78125 C 2.328125 -7.457031 2.316406 -7.082031 2.296875 -6.65625 L 2.328125 -6.65625 C 2.578125 -7.164062 2.898438 -7.53125 3.296875 -7.75 C 3.703125 -7.96875 4.203125 -8.078125 4.796875 -8.078125 C 5.804688 -8.078125 6.546875 -7.738281 7.015625 -7.0625 C 7.484375 -6.394531 7.71875 -5.375 7.71875 -4 Z M 6.328125 -3.953125 C 6.328125 -5.066406 6.179688 -5.863281 5.890625 -6.34375 C 5.597656 -6.820312 5.125 -7.0625 4.46875 -7.0625 C 3.71875 -7.0625 3.171875 -6.804688 2.828125 -6.296875 C 2.492188 -5.785156 2.328125 -4.976562 2.328125 -3.875 C 2.328125 -2.832031 2.492188 -2.0625 2.828125 -1.5625 C 3.160156 -1.070312 3.703125 -0.828125 4.453125 -0.828125 C 5.117188 -0.828125 5.597656 -1.070312 5.890625 -1.5625 C 6.179688 -2.050781 6.328125 -2.847656 6.328125 -3.953125 Z M 6.328125 -3.953125" transform="translate(40.924 19.6)"/></g></g></g><g fill="#EDEDED"><g><g><path d="M 8.53125 0 L 5.84375 -4.296875 L 2.625 -4.296875 L 2.625 0 L 1.234375 0 L 1.234375 -10.328125 L 6.09375 -10.328125 C 7.257812 -10.328125 8.15625 -10.066406 8.78125 -9.546875 C 9.414062 -9.023438 9.734375 -8.300781 9.734375 -7.375 C 9.734375 -6.601562 9.507812 -5.957031 9.0625 -5.4375 C 8.613281 -4.914062 8 -4.585938 7.21875 -4.453125 L 10.140625 0 Z M 8.328125 -7.359375 C 8.328125 -7.960938 8.125 -8.421875 7.71875 -8.734375 C 7.3125 -9.046875 6.722656 -9.203125 5.953125 -9.203125 L 2.625 -9.203125 L 2.625 -5.390625 L 6.015625 -5.390625 C 6.753906 -5.390625 7.320312 -5.5625 7.71875 -5.90625 C 8.125 -6.257812 8.328125 -6.742188 8.328125 -7.359375 Z M 8.328125 -7.359375" transform="translate(49.274 19.6)"/></g></g></g><g fill="#EDEDED"><g><g><path d="M 2.03125 -3.6875 C 2.03125 -2.78125 2.21875 -2.078125 2.59375 -1.578125 C 2.96875 -1.085938 3.515625 -0.84375 4.234375 -0.84375 C 4.804688 -0.84375 5.265625 -0.957031 5.609375 -1.1875 C 5.953125 -1.414062 6.1875 -1.707031 6.3125 -2.0625 L 7.46875 -1.734375 C 7 -0.484375 5.921875 0.140625 4.234375 0.140625 C 3.066406 0.140625 2.175781 -0.207031 1.5625 -0.90625 C 0.945312 -1.601562 0.640625 -2.640625 0.640625 -4.015625 C 0.640625 -5.328125 0.945312 -6.332031 1.5625 -7.03125 C 2.175781 -7.726562 3.050781 -8.078125 4.1875 -8.078125 C 6.519531 -8.078125 7.6875 -6.671875 7.6875 -3.859375 L 7.6875 -3.6875 Z M 6.3125 -4.703125 C 6.238281 -5.535156 6.023438 -6.144531 5.671875 -6.53125 C 5.328125 -6.914062 4.828125 -7.109375 4.171875 -7.109375 C 3.523438 -7.109375 3.015625 -6.894531 2.640625 -6.46875 C 2.265625 -6.039062 2.0625 -5.453125 2.03125 -4.703125 Z M 6.3125 -4.703125" transform="translate(60.115 19.6)"/></g></g></g><g fill="#EDEDED"><g><g><path d="M 2.640625 -6.96875 L 2.640625 0 L 1.328125 0 L 1.328125 -6.96875 L 0.21875 -6.96875 L 0.21875 -7.9375 L 1.328125 -7.9375 L 1.328125 -8.828125 C 1.328125 -9.546875 1.484375 -10.0625 1.796875 -10.375 C 2.117188 -10.695312 2.609375 -10.859375 3.265625 -10.859375 C 3.628906 -10.859375 3.9375 -10.832031 4.1875 -10.78125 L 4.1875 -9.765625 C 3.96875 -9.804688 3.773438 -9.828125 3.609375 -9.828125 C 3.265625 -9.828125 3.015625 -9.738281 2.859375 -9.5625 C 2.710938 -9.394531 2.640625 -9.085938 2.640625 -8.640625 L 2.640625 -7.9375 L 4.1875 -7.9375 L 4.1875 -6.96875 Z M 2.640625 -6.96875" transform="translate(68.464 19.6)"/></g></g></g></svg>